<?xml version="1.0" encoding="UTF-8" standalone="no"?>
<!-- Created with Inkscape (http://www.inkscape.org/) -->

<svg
   xmlns:dc="http://purl.org/dc/elements/1.1/"
   xmlns:cc="http://creativecommons.org/ns#"
   xmlns:rdf="http://www.w3.org/1999/02/22-rdf-syntax-ns#"
   xmlns:svg="http://www.w3.org/2000/svg"
   xmlns="http://www.w3.org/2000/svg"
   xmlns:sodipodi="http://sodipodi.sourceforge.net/DTD/sodipodi-0.dtd"
   xmlns:inkscape="http://www.inkscape.org/namespaces/inkscape"
   version="1.1"
   width="1538"
   height="906"
   id="svg2"
   inkscape:version="0.48.0 r9654"
   sodipodi:docname="Logo_de_la_République_française.svg">
  <metadata
     id="metadata11">
    <rdf:RDF>
      <cc:Work
         rdf:about="">
        <dc:format>image/svg+xml</dc:format>
        <dc:type
           rdf:resource="http://purl.org/dc/dcmitype/StillImage" />
        <dc:title></dc:title>
      </cc:Work>
    </rdf:RDF>
  </metadata>
  <sodipodi:namedview
     pagecolor="#ffffff"
     bordercolor="#666666"
     borderopacity="1"
     objecttolerance="10"
     gridtolerance="10"
     guidetolerance="10"
     inkscape:pageopacity="0"
     inkscape:pageshadow="2"
     inkscape:window-width="1366"
     inkscape:window-height="706"
     id="namedview9"
     showgrid="false"
     inkscape:zoom="0.26048565"
     inkscape:cx="500.58975"
     inkscape:cy="238.92633"
     inkscape:window-x="-8"
     inkscape:window-y="-8"
     inkscape:window-maximized="1"
     inkscape:current-layer="svg2" />
  <defs
     id="defs4" />
  <rect
     style="opacity:0;fill:#ffffff;fill-opacity:1;stroke:#000000;stroke-width:0.10000000000000001;stroke-miterlimit:4;stroke-dasharray:none;stroke-dashoffset:0"
     id="rect4072"
     width="1512.5593"
     height="879.12714"
     x="12.720337"
     y="13.436432" />
  <g
     style="font-size:121.47299957px;font-style:normal;font-variant:normal;font-weight:normal;font-stretch:normal;line-height:125%;letter-spacing:1.79186141px;word-spacing:-0.0354824px;fill:#333333;fill-opacity:1;stroke:#333333;stroke-width:1.77412033;font-family:Segoe UI;-inkscape-font-specification:Segoe UI"
     id="text3006"
     transform="translate(8,-12)">
    <path
       d="m 199.25279,760.18915 -22.47962,0 -5.21955,-14.11649 -29.06336,0 -5.57542,14.11649 -22.24237,0 31.13932,-80.96223 22.95412,0 z m -33.39321,-30.131 -8.71901,-25.80115 -8.83764,25.80115 z"
       style="font-weight:bold;text-align:start;line-height:125%;writing-mode:lr-tb;text-anchor:start;fill:#333333;stroke:#333333;stroke-width:3.21470618;stroke-miterlimit:4;font-family:Aharoni;-inkscape-font-specification:Aharoni Bold"
       id="path4124"
       inkscape:connector-curvature="0" />
    <path
       d="m 303.6793,760.18915 -26.21634,0 -20.04779,-31.08001 0,31.08001 -21.05611,0 0,-80.96223 32.74077,0 c 9.56911,8e-5 16.64712,2.86687 21.23405,8.60038 3.71688,4.62648 5.57535,10.0635 5.57542,16.31107 -7e-5,7.15715 -2.13533,12.87097 -6.4058,17.14146 -2.72846,2.72843 -6.48494,4.62645 -11.26947,5.69404 z m -29.65649,-54.86452 c -5e-5,-2.8865 -1.04791,-5.31833 -3.14359,-7.29549 -1.97714,-1.85841 -5.16027,-2.78765 -9.54939,-2.78771 l -3.91466,0 0,20.22572 3.91466,0 c 4.42866,5e-5 7.61179,-0.92919 9.54939,-2.78771 2.09568,-2.01659 3.14354,-4.46819 3.14359,-7.35481 z"
       style="font-weight:bold;text-align:start;line-height:125%;writing-mode:lr-tb;text-anchor:start;fill:#333333;stroke:#333333;stroke-width:3.21470618;stroke-miterlimit:4;font-family:Aharoni;-inkscape-font-specification:Aharoni Bold"
       id="path4126"
       inkscape:connector-curvature="0" />
    <path
       d="m 440.80954,760.18915 -21.05611,0 -5.99062,-46.62001 -19.57328,46.62001 -8.36313,0 -18.68359,-46.62001 -6.88031,46.62001 -20.93749,0 13.76062,-80.96223 20.75954,0 16.4297,43.17985 17.37871,-43.17985 20.93748,0 z"
       style="font-weight:bold;text-align:start;line-height:125%;writing-mode:lr-tb;text-anchor:start;fill:#333333;stroke:#333333;stroke-width:3.21470618;stroke-miterlimit:4;font-family:Aharoni;-inkscape-font-specification:Aharoni Bold"
       id="path4128"
       inkscape:connector-curvature="0" />
    <path
       d="m 524.51642,760.18915 -46.08619,0 0,-80.96223 46.08619,0 0,17.61596 -25.03008,0 0,13.7013 23.66588,0 0,17.61595 -23.66588,0 0,14.41306 25.03008,0 z"
       style="font-weight:bold;text-align:start;line-height:125%;writing-mode:lr-tb;text-anchor:start;fill:#333333;stroke:#333333;stroke-width:3.21470618;stroke-miterlimit:4;font-family:Aharoni;-inkscape-font-specification:Aharoni Bold"
       id="path4130"
       inkscape:connector-curvature="0" />
    <path
       d="m 617.42014,760.18915 -46.08619,0 0,-80.96223 46.08619,0 0,17.61596 -25.03008,0 0,13.7013 23.66588,0 0,17.61595 -23.66588,0 0,14.41306 25.03008,0 z"
       style="font-weight:bold;text-align:start;line-height:125%;writing-mode:lr-tb;text-anchor:start;fill:#333333;stroke:#333333;stroke-width:3.21470618;stroke-miterlimit:4;font-family:Aharoni;-inkscape-font-specification:Aharoni Bold"
       id="path4132"
       inkscape:connector-curvature="0" />
    <path
       d="m 777.31667,719.67838 c -8e-5,8.42247 -2.54065,16.22212 -7.62172,23.39897 -5.08121,7.17688 -11.57598,12.14928 -19.48432,14.91722 -4.1915,1.46305 -8.46203,2.19458 -12.8116,2.19458 l -31.08001,0 0,-80.96223 31.08001,0 c 7.59201,8e-5 14.63048,2.11557 21.11542,6.34649 6.3662,4.11244 11.24963,9.60877 14.65031,16.48901 2.76786,5.6941 4.15183,11.56608 4.15191,17.61596 z m -21.88649,0 c -6e-5,-5.57538 -1.56197,-10.43904 -4.68573,-14.591 -4.15196,-5.49627 -10.34027,-8.24444 -18.56496,-8.2445 l -4.80436,0 0,45.73031 4.80436,0 c 8.26423,2e-5 14.45254,-2.74815 18.56496,-8.2445 3.12376,-4.19143 4.68567,-9.07486 4.68573,-14.65031 z"
       style="font-weight:bold;text-align:start;line-height:125%;writing-mode:lr-tb;text-anchor:start;fill:#333333;stroke:#333333;stroke-width:3.21470618;stroke-miterlimit:4;font-family:Aharoni;-inkscape-font-specification:Aharoni Bold"
       id="path4134"
       inkscape:connector-curvature="0" />
    <path
       d="m 863.58515,760.18915 -46.0862,0 0,-80.96223 46.0862,0 0,17.61596 -25.03009,0 0,13.7013 23.66589,0 0,17.61595 -23.66589,0 0,14.41306 25.03009,0 z"
       style="font-weight:bold;text-align:start;line-height:125%;writing-mode:lr-tb;text-anchor:start;fill:#333333;stroke:#333333;stroke-width:3.21470618;stroke-miterlimit:4;font-family:Aharoni;-inkscape-font-specification:Aharoni Bold"
       id="path4136"
       inkscape:connector-curvature="0" />
    <path
       d="m 999.19776,760.18915 -46.32344,0 0,-80.96223 21.05611,0 0,63.34627 25.26733,0 z"
       style="font-weight:bold;text-align:start;line-height:125%;writing-mode:lr-tb;text-anchor:start;fill:#333333;stroke:#333333;stroke-width:3.21470618;stroke-miterlimit:4;font-family:Aharoni;-inkscape-font-specification:Aharoni Bold"
       id="path4138"
       inkscape:connector-curvature="0" />
    <path
       d="m 1155.7806,760.18915 -22.4796,0 -5.2195,-14.11649 -29.0634,0 -5.5754,14.11649 -22.2424,0 31.1393,-80.96223 22.9541,0 z m -33.3932,-30.131 -8.719,-25.80115 -8.8376,25.80115 z"
       style="font-weight:bold;text-align:start;line-height:125%;writing-mode:lr-tb;text-anchor:start;fill:#333333;stroke:#333333;stroke-width:3.21470618;stroke-miterlimit:4;font-family:Aharoni;-inkscape-font-specification:Aharoni Bold"
       id="path4140"
       inkscape:connector-curvature="0" />
    <path
       d="m 1212.9858,760.18915 -21.0561,0 0,-80.96223 21.0561,0 z"
       style="font-weight:bold;text-align:start;line-height:125%;writing-mode:lr-tb;text-anchor:start;fill:#333333;stroke:#333333;stroke-width:3.21470618;stroke-miterlimit:4;font-family:Aharoni;-inkscape-font-specification:Aharoni Bold"
       id="path4142"
       inkscape:connector-curvature="0" />
    <path
       d="m 1326.9858,760.18915 -26.2164,0 -20.0478,-31.08001 0,31.08001 -21.0561,0 0,-80.96223 32.7408,0 c 9.5691,8e-5 16.6471,2.86687 21.234,8.60038 3.7169,4.62648 5.5754,10.0635 5.5755,16.31107 -10e-5,7.15715 -2.1354,12.87097 -6.4058,17.14146 -2.7285,2.72843 -6.485,4.62645 -11.2695,5.69404 z m -29.6565,-54.86452 c -1e-4,-2.8865 -1.0479,-5.31833 -3.1436,-7.29549 -1.9772,-1.85841 -5.1603,-2.78765 -9.5494,-2.78771 l -3.9147,0 0,20.22572 3.9147,0 c 4.4287,5e-5 7.6118,-0.92919 9.5494,-2.78771 2.0957,-2.01659 3.1435,-4.46819 3.1436,-7.35481 z"
       style="font-weight:bold;text-align:start;line-height:125%;writing-mode:lr-tb;text-anchor:start;fill:#333333;stroke:#333333;stroke-width:3.21470618;stroke-miterlimit:4;font-family:Aharoni;-inkscape-font-specification:Aharoni Bold"
       id="path4144"
       inkscape:connector-curvature="0" />
  </g>
  <path
     style="fill:#333333;stroke:#333333;stroke-width:1.77412033px;stroke-linecap:butt;stroke-linejoin:miter;stroke-opacity:1"
     d="m 1032.9411,666.39731 26.882,0.89607 -20.6096,41.21904 -17.9213,0 z"
     id="path3778"
     inkscape:connector-curvature="0" />
  <path
     style="fill:#333333;stroke:#333333;stroke-width:1.77412033px;stroke-linecap:butt;stroke-linejoin:miter;stroke-opacity:1"
     d="m 503.70603,654.76609 5.03639,-20.56256 21.50558,0 -16.1292,20.60953 z"
     id="path3780"
     inkscape:connector-curvature="0"
     sodipodi:nodetypes="ccccc" />
  <g
     id="g4105"
     transform="matrix(2.1467325,0,0,2.1467325,-65.999827,-652.51476)">
    <path
       sodipodi:nodetypes="ccccccc"
       inkscape:connector-curvature="0"
       id="path2996"
       d="m 227.00459,570.12213 c 11.80612,-23.61223 32.46683,-33.64744 32.46683,-33.64744 21.84131,-8.26428 25.97345,-19.48009 25.97345,-19.48009 12.39643,-23.02193 10.03521,-31.28621 10.03521,-31.28621 -53.12754,27.74438 -64.93365,43.09233 -64.93365,43.09233 -3.72368,3.14213 -4.34979,13.36866 -4.34979,13.36866 -3.75669,21.28787 0.80795,27.95275 0.80795,27.95275 z"
       style="opacity:0.88999999;fill:#1a1a1a;stroke:none" />
    <path
       sodipodi:nodetypes="cccc"
       inkscape:connector-curvature="0"
       id="path3000"
       d="m 62.30925,365.8763 c 259.14428,5.90305 291.6111,97.40046 291.6111,97.40046 l -43.09233,15.34796 C 231.13674,367.05691 62.30925,365.8763 62.30925,365.8763 z"
       style="fill:#0055d4;stroke:none" />
    <path
       sodipodi:nodetypes="ccccsc"
       inkscape:connector-curvature="0"
       id="path3002"
       d="m 723.07023,480.67596 c 0,0 -171.98772,-41.01142 -281.7846,-33.33745 0,0 -80.28161,0 -92.67803,53.12752 -5.31275,14.16735 27.36277,3.23186 27.36277,3.23186 77.03492,-23.31709 154.51397,-28.72872 232.50673,-26.63756 67.05781,1.79797 114.59313,3.61563 114.59313,3.61563 z"
       style="fill:#d40000;stroke:none" />
    <path
       sodipodi:nodetypes="ccczc"
       inkscape:connector-curvature="0"
       id="path3004"
       d="m 417.08308,528.21041 24.79285,-16.52856 c 74.37854,56.37421 73.3455,73.93581 73.3455,73.93581 -6.9361,2.95153 -35.60018,-26.35068 -62.27727,-39.10776 -26.67709,-12.7571 -35.86108,-18.29949 -35.86108,-18.29949 z"
       style="opacity:0.79000005;fill:#000000;stroke:none" />
    <path
       sodipodi:nodetypes="ccccsc"
       inkscape:connector-curvature="0"
       id="path3002-5"
       d="m 625.9248,471.72702 c 0,0 -112.06602,-19.65633 -183.60893,-15.97828 0,0 -52.31094,0 -60.38837,25.46346 -3.46175,6.79025 17.8294,1.54898 17.8294,1.54898 50.19542,-11.17562 100.68024,-13.76936 151.4998,-12.76709 43.69442,0.86175 74.6681,1.73293 74.6681,1.73293 z"
       style="opacity:0.03999999;fill:#ffffff;stroke:none" />
    <path
       sodipodi:nodetypes="ccccsc"
       inkscape:connector-curvature="0"
       id="path3002-5-9"
       d="m 590.26273,467.55333 c 0,0 -93.21999,-11.02181 -152.52994,-7.49411 0,0 -43.39982,0.82857 -49.78478,17.53398 -2.78765,4.47548 14.81144,0.72603 14.81144,0.72603 41.50578,-8.07073 83.35833,-10.55896 125.53327,-10.7114 36.26184,-0.13107 61.97001,-0.0545 61.97001,-0.0545 z"
       style="opacity:0.03999999;fill:#e6e6e6;stroke:none" />
    <g
       transform="matrix(-0.64701856,-0.2934675,-0.23193442,0.72666362,621.76297,118.37667)"
       id="g4047">
      <path
         style="opacity:0.03999999;fill:#ffffff;stroke:none"
         d="m 487.01286,556.38325 c 0,0 -112.06602,-19.65633 -183.60894,-15.97828 0,0 -52.31094,0 -60.38837,25.46346 -3.46175,6.79025 17.8294,1.54898 17.8294,1.54898 50.19542,-11.17562 100.68025,-13.76936 151.49981,-12.76709 43.69442,0.86175 74.6681,1.73293 74.6681,1.73293 z"
         id="path3002-5-5"
         inkscape:connector-curvature="0"
         sodipodi:nodetypes="ccccsc" />
      <path
         style="opacity:0.03999999;fill:#e6e6e6;stroke:none"
         d="m 451.35079,552.20956 c 0,0 -93.21999,-11.02181 -152.52995,-7.49411 0,0 -43.39982,0.82857 -49.78478,17.53398 -2.78765,4.47548 14.81144,0.72603 14.81144,0.72603 41.50578,-8.07073 83.35834,-10.55896 125.53328,-10.7114 36.26184,-0.13107 61.97001,-0.0545 61.97001,-0.0545 z"
         id="path3002-5-9-8"
         inkscape:connector-curvature="0"
         sodipodi:nodetypes="ccccsc" />
    </g>
  </g>
</svg>
