<?xml version="1.0" encoding="utf-8"?>
<!-- Generator: Adobe Illustrator 22.0.0, SVG Export Plug-In . SVG Version: 6.00 Build 0)  -->
<svg version="1.1" id="Calque_1" xmlns="http://www.w3.org/2000/svg" xmlns:xlink="http://www.w3.org/1999/xlink"
  width="400" height="400" viewBox="462 72 200 250">
<style type="text/css">
	.st0{fill:none;stroke:#000000;stroke-miterlimit:10;}
	.st1{fill:#FFFFFF;}
	.st2{fill:#050304;}
	.st3{fill:#68A999;}
	.st4{fill:#D8DA00;}
	.st5{fill:#828C7F;}
</style>
<g>
	<g>
		<g>
			<path class="st3" d="M575.7,216.8c-5.8,2.5-9.9,6.6-9.9-3.1c0-9.7,0.9-25.1-4.6-25.1c-5.5,0-4.6,15.4-4.6,25.1
				c0,9.7-4,5.6-9.9,3.1c-5.8-2.5-10.7,8.9-10.7,8.9h25.2h25.2C586.4,225.7,581.5,214.3,575.7,216.8z"/>
			<path class="st3" d="M634,174.4c-1.5-0.8-3-2-4.2-3.7c0,0,0,0,0,0c-5.3-9.8-15.6-16.4-27.5-16.4c-11.9,0-22.2,6.6-27.5,16.4
				c0,0,0,0,0,0c-4.8,6.7-13.6,5.7-13.6,5.7s-8.8,1-13.6-5.7c0,0,0,0,0,0c-5.3-9.8-15.6-16.4-27.5-16.4c-11.9,0-22.2,6.6-27.5,16.4
				c0,0,0,0,0,0c-1.2,1.7-2.7,2.9-4.2,3.7c-1.1,3.4-1.9,6.9-2.5,10.5c2.1,2.2,3.1,5.2,3.5,6.9c0.1,0.5,0.2,0.9,0.3,1.4c0,0,0,0,0,0
				l0,0c3.4,13.6,15.7,23.6,30.3,23.6c14.6,0,26.9-10.1,30.3-23.6l0,0c0,0,0,0,0,0c0.1-0.5,0.2-0.9,0.3-1.4c0.8-3,3.5-10,10.5-10
				c7,0,9.7,6.9,10.5,10c0.1,0.5,0.2,0.9,0.3,1.4c0,0,0,0,0,0l0,0c3.4,13.6,15.7,23.6,30.3,23.6c14.6,0,26.9-10.1,30.3-23.6l0,0
				c0,0,0,0,0,0c0.1-0.5,0.2-0.9,0.3-1.4c0.5-1.7,1.5-4.6,3.5-6.9C635.9,181.3,635.1,177.8,634,174.4z M520.1,211.8
				c-14.5,0-26.3-11.8-26.3-26.3c0-14.5,11.8-26.3,26.3-26.3s26.3,11.8,26.3,26.3C546.4,200.1,534.6,211.8,520.1,211.8z
				 M602.4,211.8c-14.5,0-26.3-11.8-26.3-26.3c0-14.5,11.8-26.3,26.3-26.3c14.5,0,26.3,11.8,26.3,26.3
				C628.7,200.1,616.9,211.8,602.4,211.8z"/>
			<path class="st4" d="M520.1,209.4c13.2,0,23.9-10.7,23.9-23.9c0-3.7-0.8-7.2-2.4-10.3L513,208.3
				C515.3,209,517.6,209.4,520.1,209.4z"/>
			<path class="st4" d="M505.4,204.3l31.1-36.1c-1.1-1-2.3-2-3.6-2.8l-30.8,35.8C503.1,202.3,504.2,203.4,505.4,204.3z"/>
			<path class="st4" d="M520.1,161.7c-13.2,0-23.9,10.7-23.9,23.9c0,2.8,0.5,5.5,1.4,8l27-31.4C523.1,161.8,521.6,161.7,520.1,161.7
				z"/>
			<path class="st4" d="M602.4,209.4c13.2,0,23.9-10.7,23.9-23.9c0-3.7-0.8-7.2-2.4-10.3l-28.5,33.1
				C597.5,209,599.9,209.4,602.4,209.4z"/>
			<path class="st4" d="M587.6,204.3l31.1-36.1c-1.1-1-2.3-2-3.6-2.8l-30.8,35.8C585.4,202.3,586.5,203.4,587.6,204.3z"/>
			<path class="st4" d="M602.4,161.7c-13.2,0-23.9,10.7-23.9,23.9c0,2.8,0.5,5.5,1.4,8l27-31.4C605.4,161.8,603.9,161.7,602.4,161.7
				z"/>
			<path class="st4" d="M519.3,245c0,1.6,1.3,2.8,2.8,2.8h78.1c1.6,0,2.8-1.3,2.8-2.8c0-1.6-1.3-2.8-2.8-2.8h-78.1
				C520.6,242.1,519.3,243.4,519.3,245z"/>
			<path class="st3" d="M509.5,240.4c-0.6,1.5-2.4,4.6-6.9,4.6c4.4,0,6.2,3.1,6.9,4.6c1.1,4.9,5.7,8.6,11.2,8.6h81
				c5.5,0,10.2-3.7,11.2-8.6c0.6-1.5,2.4-4.6,6.9-4.6c-4.4,0-6.2-3.1-6.9-4.6c-1.1-4.9-5.7-8.6-11.2-8.6h-81
				C515.2,231.8,510.5,235.5,509.5,240.4z M607.5,242.5v1c1.1,0.8,2.5,1.5,4.6,1.5c-2,0-3.5,0.6-4.6,1.5v1c0,2.9-2.6,5.3-5.7,5.3
				h-81c-3.2,0-5.7-2.4-5.7-5.3v-1c-1.1-0.8-2.5-1.5-4.6-1.5c2,0,3.5-0.6,4.6-1.5v-1c0-2.9,2.6-5.3,5.7-5.3h81
				C604.9,237.1,607.5,239.5,607.5,242.5z"/>
			<path class="st5" d="M562.9,153.1v4.7h5.4C567.8,155.1,565.6,153.1,562.9,153.1z"/>
			<path class="st5" d="M562.9,164c2.8,0,5.1-2.1,5.4-4.8h-5.4V164z"/>
			<path class="st5" d="M562.9,168.3c5.2-0.7,9.2-4.8,9.2-9.8c0-4.9-4-9.1-9.2-9.8v2.9c3.8,0,6.9,3.1,6.9,6.9s-3.1,6.9-6.9,6.9
				V168.3z"/>
			<path class="st5" d="M599.9,131.6c-2.2-1.3-4.5-2.5-6.8-3.6c-1.2,1.7-1.9,3.8-1.9,6c0,6.3,5.6,11.5,12.5,11.5
				c3.8,0,7.2-1.5,9.5-4c-2.3-2.1-4.7-4.1-7.3-6c-1.6,2.1-3,5.7-1.4,5.4c0.8-3.2,5.4-2.1,3.6,0.2c-1.9,2.3-6.2,2.9-7.2,1
				c-0.9-1.7,3-6.8,3.7-7.6c-1-0.7-2.1-1.4-3.1-2.1c-0.6,1.6-2.5,6.8-4.3,6.9c-2.1,0.2-3.9-3.8-3-6.6c0.9-2.8,4.3,0.4,2.1,2.9
				C596.8,137.2,599,134.1,599.9,131.6z"/>
			<path class="st5" d="M603.7,147.9c-8.2,0-14.9-6.2-14.9-13.9c0-2.5,0.7-4.9,2-7c-3.1-1.3-6.2-2.4-9.5-3.3
				c-0.4,2.5-1.8,10.1-5.9,12.5c-5,2.9-9.4-0.6-7.8-5.5c1.5-5,6.5-1.6,4.5,0.6c2.5-0.2,4.6-3.6,5.4-8.5c-0.8-0.2-1.6-0.3-2.4-0.5
				c0,0.2,0,0.5-0.1,0.8c-0.3,1.6-0.9,2.7-1.5,2.6c-0.6-0.1-0.9-1.5-0.6-3c0-0.2,0.1-0.5,0.1-0.7c-0.6-0.1-1.1-0.2-1.7-0.2
				c0,0.2,0,0.4-0.1,0.6c-0.3,1.6-0.9,2.7-1.5,2.6c-0.6-0.1-0.9-1.5-0.6-3c0-0.1,0.1-0.3,0.1-0.4c-0.7-0.1-1.3-0.1-2-0.2
				c0,0.3,0,0.6,0,0.9c-0.1,1.6-0.7,2.8-1.3,2.8c-0.6-0.1-1-1.4-0.9-3c0-0.3,0.1-0.6,0.1-0.9c-0.8,0-1.5-0.1-2.3-0.1v19.3
				c2.3,0,5.4,0,8.2,0c5.2,0,9.7-7.8,10.3-9.8c0.7-2.1,1.4-3.3,2.9-2.8c1.5,0.5,1,1.9,1,1.9c0,6-8,14.4-14.4,14.4
				c-3.2,0-6.1,0-8.2,0v2.4c6.5,0.8,11.6,5.9,11.6,12.2c0,6.3-5.1,11.4-11.6,12.2v3l1-0.1c2.5-0.2,6.3-1.1,8.8-4.4l0,0
				c1.7-3.1,3.9-5.9,6.4-8.2c-1.1-2.8-5.2-13.7,0.6-17.1c6.6-3.8,13.5,4.9,11.6,6.4c-1.9,1.5-3.4-0.5-4.2-1.5
				c-0.8-1.1-3.3-3.3-5.6-1.7c-2.3,1.5-2.7,5.3,0.1,11.7c1.8-1.4,3.6-2.5,5.6-3.5c-0.4-1.1-1.2-3.3-2-2.9c-1,0.4-0.2,2.6-1.2,2.7
				c-1,0.1-1.8-3-0.9-4.2c0.8-1.1,3.6-1.2,5.9,3.6c4.1-1.8,8.7-2.7,13.3-2.7c2.5,0,4.9,0.3,7.2,0.8c0.7-1.4,2.5-4.7,4.7-4.6
				c2.8,0.1,6.5,4.8,6.5,5.9c0,1.1-1.7,0.5-2.9-1c-1.2-1.5-4.2-3.5-5,0.6c8,2.6,14.8,8.1,19,15.6l0,0l0.2,0.4
				c0.1,0.1,0.2,0.2,0.3,0.3c0-0.1-0.1-0.2-0.1-0.3c-3.9-9.9-9.9-18.8-17.3-26.2C612.2,146,608.2,147.9,603.7,147.9z M573.2,149.5
				c-1.1,0-2.1-0.9-2.1-2.1c0-1.1,0.9-2.1,2.1-2.1c1.1,0,2.1,0.9,2.1,2.1C575.3,148.6,574.3,149.5,573.2,149.5z M585.8,141.7
				c-1.2,0-2.2-1-2.2-2.2c0-1.2,1-2.2,2.2-2.2c1.2,0,2.2,1,2.2,2.2C588,140.7,587,141.7,585.8,141.7z"/>
			<path class="st4" d="M561.3,265.4C561.2,265.4,561.2,265.4,561.3,265.4L561.3,265.4C561.2,265.4,561.2,265.4,561.3,265.4z"/>
			<path class="st5" d="M636.4,210.1c0.7-4.2,1.1-8.5,1.1-12.9c0-3-0.2-6-0.5-8.9l-0.1,0.1c-0.6,1.1-1.2,2.4-1.6,3.9
				c-0.1,0.4-0.2,0.8-0.3,1.3l-1.6,4.5l-1.8,4.1l-0.3,0.6c-5.7,9.5-15.8,15.6-26.8,16.3v6.6c0,0.7-0.6,1.3-1.3,1.3s-1.3-0.6-1.3-1.3
				v-6.6c-0.6,0-1.2,0-1.8-0.1v6.7c0,0.7-0.6,1.3-1.3,1.3c-0.7,0-1.3-0.6-1.3-1.3V219c0,0,0-0.1,0-0.1c-5.1-0.7-9.9-2.6-14.2-5.5
				c0,0,0,0,0,0l-1.5-1l0,0l0.1,0.1l1.2,1.4c0,0,0,0,0,0c2.8,3.2,5.5,8.7,6.1,10.5c0,0,0,0.1,0,0.1c0.9,0,2.4-0.3,2.4-1.7
				c0.1-2.1-0.1-3,1.9-1.9c2,1,2.7,5.1-3.6,5.7l1.2,3.1l10.6,0c1.7,0,3.3,0.3,4.8,0.8c0.5-2.1,3.2-11.5,14.3-11
				c12.4,0.5,10.5,11.6,5,12.6c-5.5,1-7-3.6-5.1-6.1c1.9-2.5,4.6,0.6,2.9,2.1c1.7-0.1,2.4-3.3,1.2-4.5c-1.2-1.2-12-3.6-13.9,9.4
				c2.2,1.8,3.7,4.2,4.4,7c0.8,1.8,5,2.6,7.3,2.9c4.5-6.1,8.1-12.8,10.6-20c-2.3-1.7-7.8-6.6-4.6-12.2c4-7.1,7.2-4.6,6.8-3.4
				c-0.4,1.2-3.5,1.4-4.4,5c-0.8,3.3,0.6,6,3.1,7.8c0.3-0.9,0.5-1.8,0.8-2.7c-0.7-0.4-1.5-1.1-1.5-1.8c0-0.9,1.1-0.7,2-0.4
				c0.1-0.5,0.2-1.1,0.4-1.6c-0.8-0.2-1.6-0.6-1.6-1.3C634.3,210.9,635.3,210.2,636.4,210.1z M607.3,223.5c-1,0-1.8-0.8-1.8-1.8
				c0-1,0.8-1.8,1.8-1.8s1.8,0.8,1.8,1.8C609.1,222.7,608.3,223.5,607.3,223.5z M624.1,217.4c-1.2,0-2.2-1-2.2-2.2
				c0-1.2,1-2.2,2.2-2.2c1.2,0,2.2,1,2.2,2.2C626.3,216.4,625.3,217.4,624.1,217.4z M634.7,202.9c-0.9,0-1.7-0.8-1.7-1.7
				c0-0.9,0.8-1.7,1.7-1.7c0.9,0,1.7,0.8,1.7,1.7C636.5,202.2,635.7,202.9,634.7,202.9z"/>
			<path class="st5" d="M559.7,153.1c-2.7,0-5,2-5.4,4.7h5.4V153.1z"/>
			<path class="st5" d="M559.7,164v-4.8h-5.4C554.6,161.9,556.9,164,559.7,164z"/>
			<path class="st5" d="M559.7,148.8c-5.2,0.7-9.2,4.8-9.2,9.8c0,4.9,4,9.1,9.2,9.8v-2.9c-3.8,0-6.9-3.1-6.9-6.9s3.1-6.9,6.9-6.9
				V148.8z"/>
			<path class="st5" d="M518,141c1.6,0.2,0.1-3.3-1.4-5.4c-2.5,1.8-5,3.8-7.3,6c2.3,2.4,5.7,4,9.5,4c6.9,0,12.5-5.1,12.5-11.5
				c0-2.2-0.7-4.3-1.9-6c-2.4,1.1-4.6,2.3-6.8,3.6c0.9,2.5,3.1,5.5,3.7,4.1c-2.2-2.5,1.2-5.7,2.1-2.9c0.9,2.8-1,6.7-3,6.6
				c-1.8-0.1-3.7-5.3-4.3-6.9c-1.1,0.7-2.1,1.4-3.1,2.1c0.6,0.8,4.6,5.9,3.7,7.6c-1,1.8-5.3,1.2-7.2-1
				C512.6,138.9,517.2,137.8,518,141z"/>
			<path class="st5" d="M538.2,127.7c1.5-0.5,2.3,0.7,2.9,2.8c0.7,2.1,5.1,9.8,10.3,9.8c2.8,0,6,0,8.2,0v-19.3c-0.8,0-1.5,0-2.3,0.1
				c0.1,0.3,0.1,0.6,0.1,0.9c0.1,1.6-0.3,2.9-0.9,3c-0.6,0.1-1.2-1.2-1.3-2.8c0-0.3,0-0.6,0-0.9c-0.7,0.1-1.3,0.1-2,0.2
				c0,0.1,0.1,0.3,0.1,0.4c0.3,1.6,0,2.9-0.6,3c-0.6,0.1-1.3-1-1.5-2.6c0-0.2-0.1-0.4-0.1-0.6c-0.6,0.1-1.1,0.2-1.7,0.2
				c0.1,0.2,0.1,0.4,0.1,0.7c0.3,1.6,0,2.9-0.6,3c-0.6,0.1-1.3-1-1.5-2.6c0-0.3-0.1-0.5-0.1-0.8c-0.8,0.1-1.6,0.3-2.4,0.5
				c0.9,4.9,3,8.3,5.4,8.5c-2-2.2,3-5.5,4.5-0.6c1.5,5-2.9,8.4-7.8,5.5c-4.1-2.4-5.5-10-5.9-12.5c-3.3,0.9-6.4,2-9.5,3.3
				c1.3,2.1,2,4.4,2,7c0,7.6-6.7,13.9-14.9,13.9c-4.5,0-8.5-1.8-11.2-4.7c-7.5,7.4-13.5,16.4-17.5,26.5c0.1-0.1,0.2-0.2,0.3-0.4
				l0.2-0.4l0,0c4.2-7.5,11.1-13,19-15.6c-0.8-4.1-3.8-2.1-5-0.6c-1.2,1.5-2.9,2.2-2.9,1c0-1.1,3.7-5.8,6.5-5.9
				c2.2-0.1,4,3.2,4.7,4.6c2.4-0.5,4.8-0.8,7.2-0.8c4.7,0,9.2,1,13.3,2.7c2.3-4.8,5.1-4.6,5.9-3.6c0.9,1.1,0.1,4.2-0.9,4.2
				c-1-0.1-0.2-2.2-1.2-2.7c-0.7-0.3-1.6,1.9-2,2.9c2,1,3.9,2.2,5.6,3.5c2.8-6.4,2.4-10.2,0.1-11.7c-2.3-1.5-4.8,0.6-5.6,1.7
				c-0.8,1.1-2.2,3.1-4.2,1.5c-1.9-1.5,5-10.2,11.6-6.4c5.8,3.3,1.7,14.3,0.6,17.1c2.5,2.4,4.6,5.1,6.4,8.2l0,0
				c2.5,3.3,6.3,4.2,8.8,4.4l1,0.1v-3c-6.5-0.8-11.6-5.9-11.6-12.2c0-6.3,5.1-11.4,11.6-12.2V144c-2.1,0-4.9,0-8.2,0
				c-6.4,0-14.4-8.4-14.4-14.4C537.1,129.6,536.7,128.1,538.2,127.7z M549.3,145.3c1.1,0,2.1,0.9,2.1,2.1c0,1.1-0.9,2.1-2.1,2.1
				c-1.1,0-2.1-0.9-2.1-2.1C547.3,146.3,548.2,145.3,549.3,145.3z M539,139.4c0,1.2-1,2.2-2.2,2.2c-1.2,0-2.2-1-2.2-2.2
				c0-1.2,1-2.2,2.2-2.2C538,137.2,539,138.2,539,139.4z"/>
			<path class="st5" d="M584.2,266.5c0,0-3.2-0.7-3.8,4.5c8.4-2.2,16.2-5.7,23.2-10.4c-0.6,0.1-1.2,0.1-1.9,0.1H576
				c0.2,11.8-8.5,11-10.3,11.1c-1.8,0.1-3.8-1.9,2.3-2.8c4.8-0.7,5.3-6.2,5.3-8.3h-12h-0.1h-12c0,2.1,0.5,7.6,5.3,8.3
				c6.1,0.9,4,2.9,2.3,2.8c-1.8-0.1-10.5,0.7-10.3-11.1h-25.7c-0.7,0-1.4-0.1-2-0.2c7,4.7,14.9,8.3,23.3,10.5
				c-0.6-5.3-3.8-4.6-3.8-4.6c-1,3.4-8-1.6-2.2-3.5c7.2-1.2,8.7,6.3,9,8.8c5.2,1.1,10.6,1.7,16.1,1.7c0,0,0.1,0,0.1,0
				c5.5,0,10.9-0.6,16.1-1.7c0.3-2.5,1.8-9.9,9-8.7C592.2,264.9,585.2,269.9,584.2,266.5z M553.9,262.9c1.3-0.8,2.3-0.2,3.3,1.3
				c0.7,1,2.8,1.2,4,1.2c0,0,0,0,0.1,0c0,0,0,0,0.1,0v0c1.2,0,3.4-0.1,4-1.2c0.9-1.5,1.9-2.1,3.3-1.3c1.3,0.8,1.2,4.5-7.4,4.4
				C552.7,267.3,552.6,263.6,553.9,262.9z"/>
			<path class="st5" d="M507.3,239.6c0.7-2.8,2.3-5.2,4.4-7c-1.8-13-12.7-10.6-13.9-9.4c-1.2,1.2-0.5,4.5,1.2,4.5
				c-1.7-1.5,0.9-4.6,2.9-2.1c1.9,2.5,0.5,7.1-5.1,6.1c-5.5-1-7.5-12.1,5-12.6c11.1-0.5,13.8,9,14.3,11c1.5-0.5,3.1-0.8,4.8-0.8
				l10.6,0l1.2-3.1c-6.3-0.6-5.6-4.7-3.6-5.7c2-1,1.9-0.2,1.9,1.9c0.1,1.4,1.5,1.7,2.4,1.7c0,0,0-0.1,0-0.1
				c0.6-1.8,3.3-7.2,6.1-10.5c0,0,0,0,0,0l1.2-1.4l0.1-0.1l0,0l-1.5,1c0,0,0,0,0,0c-4.3,2.9-9.1,4.8-14.2,5.5c0,0,0,0.1,0,0.1v6.8
				c0,0.7-0.6,1.3-1.3,1.3c-0.7,0-1.3-0.6-1.3-1.3v-6.7c-0.6,0-1.2,0.1-1.8,0.1v6.6c0,0.7-0.6,1.3-1.3,1.3c-0.7,0-1.3-0.6-1.3-1.3
				v-6.6c-11-0.7-21.1-6.8-26.8-16.3l-0.3-0.6l-1.8-4.1l-1.6-4.5c-0.1-0.5-0.2-0.9-0.3-1.3c-0.4-1.5-0.9-2.8-1.6-3.9l-0.2-0.3
				c-0.4,3-0.5,6-0.5,9.1c0,4.4,0.4,8.7,1.1,12.9c1.2,0.1,2.2,0.8,2.2,1.7c0,0.7-0.9,1.1-1.7,1.3c0.1,0.5,0.2,1.1,0.4,1.6
				c1-0.3,2.2-0.5,2.1,0.4c0,0.7-0.8,1.4-1.6,1.8c0.2,0.9,0.5,1.8,0.8,2.7c2.5-1.7,4-4.5,3.1-7.8c-0.9-3.6-4-3.8-4.4-5
				c-0.4-1.2,2.8-3.7,6.8,3.4c3.2,5.7-2.4,10.6-4.7,12.3c2.5,7.2,6.1,14,10.6,20c0,0,0,0,0,0C502.2,242.3,506.5,241.4,507.3,239.6z
				 M515.2,219.9c1,0,1.8,0.8,1.8,1.8c0,1-0.8,1.8-1.8,1.8c-1,0-1.8-0.8-1.8-1.8C513.4,220.7,514.2,219.9,515.2,219.9z M487.8,202.9
				c-0.9,0-1.7-0.8-1.7-1.7c0-0.9,0.8-1.7,1.7-1.7c0.9,0,1.7,0.8,1.7,1.7C489.5,202.2,488.7,202.9,487.8,202.9z M498.4,213
				c1.2,0,2.2,1,2.2,2.2c0,1.2-1,2.2-2.2,2.2c-1.2,0-2.2-1-2.2-2.2C496.2,214,497.2,213,498.4,213z"/>
		</g>
		<g>
			<g>
				<path class="st4" d="M471.2,186.2c0.1,0.1,0.2,0.4,0.2,0.7c0.1,0.3,0.1,0.5,0.2,0.5c0.1,0.1,0.2,0.1,0.5,0.2
					c0.4,0.1,0.7,0.1,0.9,0c0.2-0.1,0.3-0.3,0.3-0.7l1.2-6.7c0.1-0.3,0.1-0.5,0-0.6c-0.1-0.1-0.4-0.2-0.8-0.3
					c-0.3-0.1-0.5-0.1-0.6,0c-0.1,0.1-0.2,0.2-0.3,0.5c-0.2,0.5-0.6,0.8-1,0.7l-7.9-1.4l0.1-0.8c0.1-0.6,0.5-0.9,1.1-0.9
					c0.6,0,1,0,1.1-0.1c0.2-0.1,0.3-0.4,0.4-0.9c0.1-0.4,0.1-0.7,0-0.8c0-0.1-0.2-0.2-0.4-0.2l-4.7-0.8c-0.2,0-0.3,0-0.4,0.1
					c-0.1,0.1-0.2,0.3-0.2,0.7c-0.1,0.6-0.1,0.9,0,1c0.1,0.1,0.4,0.2,0.8,0.4c0.4,0.1,0.6,0.3,0.8,0.5c0.1,0.2,0.2,0.5,0.1,0.9
					l-0.1,0.8l-7.4-1.3c0-0.3,0.1-0.5,0.1-0.7c0.1-0.4,0.2-0.7,0.4-0.9c0.2-0.2,0.6-0.3,1.1-0.4c0.9-0.2,1.4-0.3,1.7-0.5
					c0.2-0.1,0.4-0.5,0.5-1.1c0.1-0.5,0-0.7-0.3-0.8c-0.1,0-0.3,0-0.5,0l-3,0.1c-0.1,0-0.2,0-0.2,0c-0.3,0-0.5,0.1-0.6,0.1
					c-0.1,0.1-0.2,0.3-0.2,0.6l-1.6,9.2c-0.1,0.4,0.1,0.7,0.4,0.8c0.3,0.1,0.5,0.1,0.6,0.1c0.3,0.1,0.6,0,0.7-0.3
					c0.2-0.3,0.4-0.5,0.5-0.6c0.1-0.1,0.3-0.1,0.5-0.1l15.7,2.8C471,186,471.1,186.1,471.2,186.2z"/>
				<path class="st4" d="M457.3,165.5c0.3,0.1,0.6,0.1,0.8-0.1c0.3-0.3,0.6-0.5,0.9-0.4c0.2,0.1,0.4,0.2,0.6,0.3l13.7,7.8
					c0.3,0.1,0.5,0.4,0.6,0.8c0.2,0.4,0.5,0.7,0.9,0.9c0.4,0.1,0.6,0.1,0.7-0.1l1.3-3.7c0.1-0.2,0.1-0.3,0-0.3
					c-0.1-0.1-0.3-0.2-0.6-0.3c-0.3-0.1-0.5-0.1-0.6-0.1c-0.1,0-0.3,0.1-0.5,0.3c-0.4,0.4-0.7,0.5-1,0.4c-0.2-0.1-0.4-0.2-0.6-0.3
					c0,0-0.1-0.1-0.1-0.1l-1.1-0.6l1.2-3.5c1.1,0.2,1.8,0.3,2.1,0.4c0.3,0.1,0.5,0.3,0.5,0.7c0.1,0.3,0.1,0.4,0.2,0.5
					c0.1,0.1,0.3,0.2,0.7,0.3c0.3,0.1,0.5,0.1,0.6-0.1l2.2-6.3c0.1-0.2,0.1-0.4,0-0.5c-0.1-0.1-0.3-0.2-0.7-0.4
					c-0.3-0.1-0.4-0.1-0.5-0.1c-0.1,0-0.2,0.1-0.3,0.2c-0.5,0.3-1.1,0.4-1.8,0.3l-14.5-2.5c-0.4-0.1-0.7-0.1-1.1-0.2
					c-1-0.2-1.6-0.3-1.9-0.2c-0.3,0-0.5,0.2-0.7,0.5l-1.9,5.4c-0.1,0.2-0.1,0.4,0,0.5C456.6,165.2,456.9,165.3,457.3,165.5z
					 M472.1,166.1l-1.1,3.1l-9.2-5L472.1,166.1z"/>
				<path class="st4" d="M463.6,149.2c0.3,0.2,0.5,0.2,0.6,0.2c0.1,0,0.2-0.1,0.4-0.3c0.3-0.4,0.8-0.4,1.3-0.1l13.4,7.7
					c0.5,0.3,0.7,0.7,0.6,1.3c0,0.2,0,0.3,0.1,0.4c0.1,0.1,0.3,0.2,0.7,0.5c0.4,0.2,0.7,0.2,0.9-0.1l3.2-5.5
					c0.1-0.2,0.2-0.4,0.1-0.6c-0.1-0.2-0.3-0.4-0.7-0.6c-0.3-0.2-0.6-0.2-0.9,0c-0.2,0.1-0.4,0.2-0.5,0.2c-0.1,0-0.3-0.1-0.6-0.3
					l-5.7-3.3l0.3-0.6c0.6-1,1.3-1.3,2.2-0.8l4.6,2.6c0.6,0.4,1.2,0.5,1.8,0.5c0.6,0,1-0.3,1.2-0.7l2-3.5c0.1-0.3,0.2-0.4,0.2-0.6
					c0-0.1-0.3-0.3-0.7-0.5c-0.3-0.2-0.6-0.2-0.8,0c-0.2,0.1-0.5,0.1-0.7,0l-2.7-1.6c-2.2-1.3-4.2-0.8-6.1,1.3
					c0.8-3,0.1-5.2-2.2-6.5c-1.6-0.9-3.2-1.1-4.8-0.5c-1.6,0.6-2.8,1.6-3.6,3l-4.1,7.2C462.8,148.6,463,148.9,463.6,149.2z
					 M467.7,143.1c0.3-0.6,0.7-0.9,1.1-1.1c0.4-0.1,0.9,0,1.6,0.4l3.7,2.1c1.5,0.9,2,1.7,1.5,2.6l-0.5,0.8l-7.7-4.4L467.7,143.1z"/>
				<path class="st4" d="M475.2,130.2c0.3,0.3,0.5,0.4,0.6,0.4c0.1,0,0.3,0,0.6-0.2c0.4-0.2,0.7-0.3,0.8-0.2l12.4,10.8
					c0.3,0.2,0.3,0.6,0.1,1.2c-0.1,0.4-0.1,0.6,0.2,0.8c0.4,0.3,0.6,0.5,0.7,0.5c0.1,0,0.3-0.1,0.4-0.3l6.6-7.5
					c0.2-0.3,0.3-0.4,0.3-0.6c0-0.1-0.2-0.4-0.6-0.8l-1.9-2.4c-0.1-0.2-0.2-0.3-0.3-0.3c-0.3-0.2-0.6-0.1-1,0.4
					c-0.3,0.3-0.4,0.6-0.5,0.9c0,0.2,0.1,0.6,0.4,1c0.6,1.1,0.9,1.7,1,2c0.1,0.3-0.1,0.6-0.4,1l-0.5,0.6l-6.9-6l0.8-0.9
					c0.1-0.2,0.3-0.3,0.4-0.3c0.1,0,0.4,0.1,0.9,0.3c0.5,0.3,0.8,0.4,0.9,0.4c0.2,0,0.3-0.1,0.6-0.4c0.3-0.4,0.5-0.7,0.5-0.8
					c0-0.1-0.1-0.3-0.3-0.5l-3.3-2.9c-0.3-0.3-0.5-0.4-0.6-0.3c-0.1,0-0.4,0.4-0.9,1c-0.1,0.1-0.1,0.2-0.1,0.4c0,0.1,0.3,0.5,0.7,1
					c0.2,0.3,0.3,0.5,0.3,0.7c0,0.2-0.1,0.4-0.3,0.6l-0.7,0.8l-5.7-4.9l0.7-0.8c0.2-0.2,0.5-0.3,0.8-0.3c0.4,0,1,0.2,1.8,0.5
					c0.4,0.2,0.8,0.2,1,0.1c0.2-0.1,0.5-0.3,0.8-0.7c0.3-0.4,0.4-0.6,0.2-0.8c0,0-0.1-0.1-0.3-0.2l-3.1-1.7
					c-0.2-0.1-0.4-0.2-0.5-0.1c-0.1,0-0.3,0.1-0.4,0.3l-6.3,7.2c-0.2,0.2-0.3,0.4-0.3,0.5C474.9,129.9,475,130,475.2,130.2z"/>
				<path class="st4" d="M497.3,110c0.1,0.1,0.4,0.1,0.6,0c0.3-0.1,0.5-0.1,0.7,0l8.5,13.5c0.3,0.4,0.2,0.9-0.1,1.4
					c-0.2,0.2-0.2,0.4-0.2,0.5c0,0.1,0.1,0.3,0.3,0.6c0.2,0.3,0.3,0.4,0.4,0.5c0.1,0,0.3,0,0.5-0.1l6.7-4.2c1.8-1.1,2.8-2.8,3-5
					c0.2-2.2-0.7-4.7-2.5-7.7c-2-3.3-4.1-5.3-6.1-6c-2-0.7-3.9-0.5-5.6,0.6l-6.1,3.8c-0.5,0.3-0.7,0.5-0.8,0.7
					c-0.1,0.2,0,0.4,0.2,0.7C497,109.7,497.2,109.9,497.3,110z M503.4,106.1c0.5-0.3,1-0.4,1.5-0.3c0.5,0.1,0.9,0.5,1.2,1l7.1,11.4
					c0.6,0.9,0.8,1.6,0.8,2.1c0,0.5-0.2,0.9-0.7,1.2l-0.7,0.4l-9.7-15.5L503.4,106.1z"/>
				<path class="st4" d="M516.2,98.8c0.1,0.1,0.3,0.1,0.6,0.1c0.5,0,0.7,0.1,0.8,0.2l6,15.3c0.1,0.3,0,0.7-0.5,1.1
					c-0.3,0.3-0.4,0.5-0.3,0.8c0.2,0.5,0.3,0.7,0.4,0.8c0.1,0.1,0.3,0.1,0.5,0l9.3-3.7c0.3-0.1,0.5-0.2,0.5-0.4c0-0.1,0-0.5-0.1-1
					l-0.6-3c0-0.2-0.1-0.4-0.1-0.5c-0.1-0.3-0.5-0.4-1.1-0.2c-0.4,0.2-0.7,0.3-0.8,0.6c-0.1,0.2-0.2,0.6-0.1,1.1c0,1.2,0,2-0.1,2.3
					c-0.1,0.3-0.4,0.5-0.8,0.7l-0.7,0.3l-3.3-8.5l1.1-0.4c0.2-0.1,0.4-0.1,0.5,0c0.1,0.1,0.3,0.3,0.6,0.7c0.3,0.4,0.5,0.7,0.7,0.7
					c0.1,0.1,0.4,0,0.7-0.1c0.5-0.2,0.8-0.3,0.8-0.5c0.1-0.1,0-0.3-0.1-0.6l-1.6-4.1c-0.1-0.4-0.3-0.5-0.4-0.6
					c-0.1,0-0.5,0.1-1.3,0.4c-0.1,0.1-0.2,0.2-0.3,0.3c0,0.1,0,0.5,0.1,1.2c0.1,0.4,0.1,0.6,0,0.7c-0.1,0.1-0.3,0.3-0.5,0.4
					l-0.9,0.4l-2.7-7l0.9-0.4c0.3-0.1,0.5,0,0.9,0.2c0.3,0.2,0.8,0.6,1.3,1.2c0.3,0.3,0.6,0.5,0.8,0.6c0.2,0,0.6,0,1.1-0.2
					c0.4-0.2,0.6-0.4,0.5-0.6c0-0.1-0.1-0.2-0.2-0.3l-2-2.9c-0.2-0.2-0.3-0.3-0.4-0.4c-0.1,0-0.3,0-0.5,0.1l-8.9,3.5
					c-0.3,0.1-0.4,0.2-0.5,0.3c0,0.1,0,0.3,0.1,0.6C516,98.5,516.2,98.8,516.2,98.8z"/>
				<path class="st4" d="M544.5,90.4c0.1,0.1,0.3,0.2,0.6,0.3c0.4,0.1,0.6,0.3,0.6,0.6l1.6,15.6c0.1,0.8-0.2,1.2-0.7,1.5
					c-0.2,0.1-0.3,0.2-0.3,0.3c0,0.1,0,0.3,0,0.7c0,0.5,0.3,0.7,0.7,0.6l9.8-1c0.3,0,0.5-0.1,0.6-0.2c0.1-0.1,0.1-0.3,0.2-0.7
					l0.2-3.2c0-0.3,0-0.5,0-0.6c0-0.2-0.1-0.3-0.2-0.3c-0.1-0.1-0.4-0.1-0.9,0c-0.4,0-0.7,0.1-0.9,0.2c-0.2,0.1-0.3,0.4-0.3,0.8
					c-0.2,1.1-0.4,1.9-0.6,2.2c-0.2,0.3-0.5,0.5-0.9,0.6l-0.8,0.1L551.3,91c0-0.4,0.2-0.7,0.7-0.9c0.3-0.1,0.4-0.2,0.5-0.3
					c0.1-0.1,0.1-0.3,0-0.6c-0.1-0.5-0.1-0.8-0.2-0.9c-0.1-0.1-0.3-0.1-0.5-0.1l-6.9,0.7c-0.3,0-0.4,0.1-0.5,0.2
					c0,0.1-0.1,0.3,0,0.7C544.3,90.1,544.4,90.3,544.5,90.4z"/>
				<path class="st4" d="M560.6,108.7l3.9,0.3c0.2,0,0.3,0,0.3-0.1c0.1-0.1,0.1-0.3,0.1-0.6c0-0.3,0-0.5,0-0.6
					c-0.1-0.1-0.2-0.3-0.4-0.4c-0.4-0.3-0.7-0.5-0.6-0.9c0-0.2,0.1-0.4,0.2-0.7c0-0.1,0-0.1,0-0.1l0.3-1.2l3.7,0.3
					c0.1,1.1,0.2,1.9,0.2,2.2c0,0.3-0.2,0.5-0.6,0.7c-0.2,0.1-0.4,0.2-0.5,0.3c-0.1,0.1-0.1,0.4-0.1,0.8c0,0.3,0.1,0.5,0.3,0.5
					l6.6,0.5c0.2,0,0.4,0,0.5-0.1c0.1-0.1,0.1-0.4,0.2-0.8c0-0.3,0-0.5,0-0.5c0-0.1-0.1-0.1-0.2-0.2c-0.4-0.4-0.7-1-0.8-1.7
					l-1.5-14.6c0-0.4-0.1-0.8-0.1-1.1c-0.1-1-0.2-1.6-0.3-1.9c-0.1-0.3-0.4-0.5-0.7-0.5l-5.7-0.4c-0.3,0-0.4,0-0.5,0.1
					c-0.1,0.1-0.1,0.4-0.2,0.9c0,0.4,0.1,0.6,0.3,0.7c0.4,0.2,0.6,0.5,0.6,0.8c0,0.2-0.1,0.4-0.1,0.6l-3.8,15.3
					c-0.1,0.3-0.3,0.6-0.6,0.8c-0.4,0.3-0.6,0.7-0.6,1.1C560.3,108.5,560.4,108.7,560.6,108.7z M567.1,92.8l0.9,10.4l-3.3-0.2
					L567.1,92.8z"/>
				<path class="st4" d="M586.8,112.6l9.3,3.4c0.3,0.1,0.5,0.1,0.6,0.1c0.1-0.1,0.3-0.2,0.4-0.5l1.6-2.8c0.1-0.2,0.2-0.4,0.3-0.5
					c0.1-0.2,0-0.3-0.1-0.4c-0.1-0.1-0.4-0.2-0.8-0.4c-0.4-0.1-0.7-0.2-0.9-0.2c-0.2,0-0.4,0.2-0.7,0.6c-0.7,0.9-1.2,1.5-1.5,1.7
					c-0.3,0.2-0.7,0.2-1.1,0.1l-0.8-0.3l5.9-16c0.1-0.4,0.5-0.6,1-0.6c0.3,0,0.5,0,0.6-0.1c0.1-0.1,0.2-0.2,0.3-0.5
					c0.2-0.5,0.2-0.7,0.2-0.9c-0.1-0.1-0.2-0.2-0.4-0.3l-6.5-2.4c-0.2-0.1-0.4-0.1-0.5,0c-0.1,0.1-0.2,0.3-0.3,0.6
					c-0.1,0.3-0.2,0.5-0.1,0.7c0,0.2,0.2,0.3,0.4,0.6c0.3,0.3,0.4,0.5,0.3,0.8l-5.4,14.7c-0.3,0.7-0.7,1.1-1.3,1
					c-0.2,0-0.3,0-0.4,0.1c-0.1,0.1-0.2,0.3-0.3,0.6C586.3,112.2,586.4,112.4,586.8,112.6z"/>
				<path class="st4" d="M605.1,120.9c1.4,0.8,2.7,1.1,3.8,0.8c1.2-0.3,2.1-1,2.8-2.2l7.1-12.5c0.2-0.4,0.6-0.5,1-0.4
					c0.2,0,0.3,0,0.4,0c0.1,0,0.2-0.2,0.3-0.4l0.3-0.6c0.2-0.3,0.1-0.5-0.2-0.7l-2.8-1.6c-0.2-0.1-0.3-0.1-0.4-0.1
					c-0.1,0-0.3,0.2-0.5,0.5c-0.2,0.4-0.3,0.8-0.1,1.2c0.1,0.2,0.2,0.4,0.2,0.5c0,0.1-0.1,0.3-0.2,0.5l-7.3,12.8
					c-0.2,0.3-0.4,0.5-0.8,0.6c-0.4,0.1-0.7,0.1-1-0.1c-0.3-0.2-0.6-0.5-0.7-0.8c-0.1-0.3-0.1-0.7,0.1-1l7.3-12.8
					c0.2-0.3,0.3-0.5,0.4-0.5c0.1-0.1,0.3-0.1,0.5-0.1c0.3,0,0.6-0.2,0.8-0.5c0.2-0.4,0.3-0.6,0.3-0.7c0-0.1-0.1-0.2-0.3-0.3
					l-5.6-3.2c-0.3-0.2-0.5-0.2-0.6-0.1c-0.1,0.1-0.3,0.3-0.6,0.8c-0.1,0.2-0.2,0.4-0.2,0.5c0,0.1,0.1,0.2,0.2,0.4
					c0.3,0.4,0.4,0.7,0.2,1l-6.9,12.1c-0.8,1.4-1,2.7-0.6,3.9C602.6,119,603.6,120,605.1,120.9z"/>
				<path class="st4" d="M625.3,112.2l-9.9,12c-0.2,0.2-0.5,0.2-1,0c-0.3-0.1-0.5,0-0.6,0.1c-0.3,0.4-0.5,0.7-0.6,0.8
					c0,0.1,0,0.3,0.2,0.4l3.1,2.5c0.2,0.2,0.3,0.2,0.4,0.2c0.1,0,0.3-0.3,0.7-0.8c0.2-0.2,0.2-0.6,0-1c-0.3-0.5-0.3-0.9,0-1.1
					l5.9-7.2l-3.2,13l2,1.6l12-14.4c0.1-0.2,0.3-0.2,0.4-0.3c0.1,0,0.4,0,0.7,0.1c0.2,0.1,0.3,0.1,0.4,0c0.1,0,0.2-0.2,0.4-0.4
					c0.4-0.4,0.4-0.7,0.3-0.9l-3.2-2.6c-0.1-0.1-0.2-0.2-0.3-0.2c-0.1,0-0.2,0.1-0.4,0.3c-0.3,0.3-0.4,0.6-0.4,0.7
					c0,0.2,0,0.4,0.2,0.7c0.3,0.4,0.3,0.8,0,1.2l-4.8,5.8l2.7-11.1l-3.2-2.6c-0.3-0.2-0.6-0.1-1,0.4c-0.2,0.3-0.3,0.5-0.3,0.6
					c0,0.1,0,0.3,0.2,0.6c0.1,0.3,0.2,0.5,0.1,0.7C625.7,111.7,625.5,111.9,625.3,112.2z"/>
				<path class="st4" d="M640,124.2l-12.5,10.7c-0.3,0.2-0.7,0.2-1.2-0.1c-0.3-0.2-0.6-0.2-0.9,0c-0.4,0.3-0.6,0.5-0.6,0.6
					c0,0.1,0,0.3,0.2,0.5l6.5,7.6c0.2,0.3,0.4,0.4,0.5,0.4c0.1,0,0.4-0.2,0.9-0.5l2.6-1.5c0.2-0.1,0.3-0.2,0.4-0.3
					c0.3-0.2,0.2-0.6-0.2-1.1c-0.3-0.3-0.6-0.5-0.8-0.6c-0.2,0-0.6,0-1.1,0.2c-1.1,0.4-1.9,0.7-2.2,0.7c-0.3,0-0.6-0.2-0.9-0.5
					l-0.5-0.6l6.9-5.9l0.8,0.9c0.1,0.2,0.2,0.3,0.2,0.5c0,0.1-0.2,0.4-0.4,0.8c-0.3,0.4-0.5,0.7-0.5,0.9c0,0.2,0.1,0.4,0.3,0.6
					c0.3,0.4,0.6,0.6,0.7,0.6c0.1,0,0.3-0.1,0.5-0.2l3.3-2.9c0.3-0.3,0.4-0.4,0.4-0.6c0-0.1-0.3-0.5-0.8-1.1
					c-0.1-0.1-0.2-0.2-0.4-0.1c-0.1,0-0.5,0.2-1,0.5c-0.3,0.2-0.6,0.2-0.7,0.2c-0.2,0-0.3-0.2-0.5-0.4l-0.7-0.8l5.7-4.9l0.7,0.8
					c0.2,0.2,0.2,0.5,0.1,0.9c-0.1,0.4-0.3,0.9-0.7,1.7c-0.2,0.4-0.3,0.7-0.3,0.9c0,0.2,0.2,0.5,0.6,0.9c0.3,0.4,0.6,0.5,0.7,0.3
					c0,0,0.1-0.1,0.2-0.3l2.1-2.8c0.2-0.2,0.2-0.4,0.2-0.5c0-0.1-0.1-0.3-0.3-0.5l-6.2-7.3c-0.2-0.2-0.3-0.3-0.4-0.3
					c-0.1,0-0.3,0.1-0.5,0.3c-0.3,0.3-0.5,0.4-0.5,0.6c0,0.1,0,0.3,0.1,0.6C640.1,123.8,640.1,124,640,124.2z"/>
				<path class="st4" d="M649.2,140.1c0.2,0.1,0.5,0,1-0.2c1.1-0.4,1.7-0.7,2-0.7c0.3,0,0.5,0.1,0.6,0.3l0.3,0.6l-14.8,8.7
					c-0.2,0.1-0.4,0.2-0.5,0.2c-0.1,0-0.3-0.1-0.6-0.3c-0.3-0.2-0.6-0.2-1,0c-0.4,0.2-0.6,0.4-0.6,0.5c0,0.1,0,0.3,0.1,0.5l3.4,5.7
					c0.2,0.3,0.3,0.4,0.4,0.5c0.1,0,0.4-0.1,0.7-0.3c0.3-0.2,0.5-0.3,0.5-0.4c0.1-0.1,0.1-0.3,0-0.5c-0.1-0.5,0.1-0.9,0.5-1.1
					l14.6-8.6l0.2,0.4c0.1,0.2,0.1,0.6-0.3,1c-0.3,0.4-0.8,0.9-1.4,1.4c-0.4,0.3-0.5,0.6-0.5,0.7c0,0.2,0.1,0.5,0.4,0.9
					c0.2,0.3,0.4,0.5,0.5,0.5c0.2,0,0.4-0.1,0.6-0.2c0.2-0.1,0.4-0.2,0.5-0.4l2.2-1.6c0.4-0.3,0.5-0.4,0.6-0.5c0-0.1,0-0.3-0.2-0.6
					l-5.6-9.5c-0.2-0.4-0.4-0.6-0.6-0.7c-0.2,0-0.4,0-0.7,0.2l-2.7,1.4c-0.1,0.1-0.3,0.1-0.4,0.2c-0.2,0.1-0.4,0.3-0.4,0.4
					c0,0.2,0.1,0.4,0.3,0.8C648.8,139.8,649,140,649.2,140.1z"/>
				<path class="st4" d="M657.5,155.3c0,0.1,0,0.4,0.2,0.8c0.2,0.4,0.3,0.7,0.5,0.8c0.2,0.1,0.5,0.1,1,0c1.1-0.2,1.8-0.4,2.1-0.3
					c0.3,0,0.5,0.2,0.6,0.4l0.2,0.6l-16.2,5.9c-0.2,0.1-0.4,0.1-0.5,0.1c-0.1,0-0.3-0.2-0.5-0.4c-0.2-0.3-0.5-0.3-1-0.1
					c-0.4,0.1-0.6,0.3-0.7,0.4c-0.1,0.1,0,0.3,0,0.5l2.3,6.2c0.1,0.3,0.2,0.5,0.3,0.5c0.1,0.1,0.4,0,0.8-0.1
					c0.3-0.1,0.5-0.2,0.6-0.3c0.1-0.1,0.1-0.3,0.1-0.5c0-0.5,0.2-0.9,0.7-1l15.9-5.8l0.2,0.4c0.1,0.3-0.1,0.6-0.4,0.9
					c-0.4,0.3-0.9,0.7-1.6,1.1c-0.4,0.2-0.6,0.4-0.7,0.6c0,0.2,0,0.5,0.2,1c0.1,0.4,0.3,0.6,0.4,0.6c0.2,0,0.4,0,0.6-0.1
					c0.2-0.1,0.4-0.2,0.6-0.3l2.5-1.2c0.4-0.2,0.6-0.3,0.7-0.4c0-0.1,0-0.3-0.1-0.6l-3.8-10.3c-0.2-0.5-0.3-0.7-0.5-0.8
					c-0.1-0.1-0.4-0.1-0.7,0l-2.9,0.9c-0.2,0-0.3,0.1-0.5,0.1C657.7,155.1,657.5,155.2,657.5,155.3z"/>
				<path class="st4" d="M649.1,176.1c-0.2-0.3-0.5-0.5-0.8-0.4c-0.5,0.1-0.8,0.2-0.8,0.3c-0.1,0.1-0.1,0.3-0.1,0.5l1.8,9.8
					c0.1,0.3,0.1,0.5,0.3,0.6c0.1,0,0.5,0.1,1,0.1l3,0c0.2,0,0.4,0,0.5,0c0.3-0.1,0.5-0.4,0.4-1c-0.1-0.4-0.2-0.7-0.4-0.9
					c-0.2-0.2-0.5-0.3-1-0.3c-1.2-0.2-1.9-0.4-2.2-0.5c-0.3-0.1-0.4-0.4-0.5-0.9l-0.1-0.8l8.9-1.6l0.2,1.2c0,0.2,0,0.4-0.1,0.5
					c-0.1,0.1-0.3,0.3-0.8,0.5c-0.5,0.2-0.8,0.4-0.9,0.5c-0.1,0.1-0.1,0.4,0,0.7c0.1,0.5,0.2,0.8,0.3,0.9c0.1,0.1,0.3,0.1,0.6,0.1
					l4.3-0.8c0.4-0.1,0.6-0.2,0.6-0.3c0-0.1,0-0.6-0.2-1.3c0-0.2-0.1-0.3-0.2-0.3c-0.1-0.1-0.5-0.1-1.2-0.1c-0.4,0-0.6-0.1-0.7-0.2
					c-0.1-0.1-0.2-0.3-0.3-0.6l-0.2-1l7.4-1.3l0.2,1c0,0.3-0.1,0.5-0.3,0.8c-0.3,0.3-0.8,0.6-1.5,1.1c-0.4,0.2-0.6,0.5-0.7,0.7
					c-0.1,0.2-0.1,0.6,0,1.1c0.1,0.5,0.2,0.7,0.5,0.6c0.1,0,0.2-0.1,0.3-0.1l3.2-1.4c0.2-0.1,0.4-0.2,0.4-0.3c0-0.1,0.1-0.3,0-0.5
					l-1.7-9.4c-0.1-0.3-0.1-0.5-0.2-0.5c-0.1,0-0.3,0-0.6,0c-0.4,0.1-0.6,0.1-0.7,0.2c-0.1,0.1-0.2,0.3-0.2,0.6
					c-0.1,0.5-0.2,0.7-0.4,0.8l-16.2,2.9C649.7,176.8,649.4,176.6,649.1,176.1z"/>
			</g>
			<g>
				<path class="st3" d="M475.1,221.9c0.1,0.3-0.1,0.6-0.6,0.9c-0.4,0.3-1,0.6-1.7,0.9c-0.4,0.2-0.7,0.4-0.7,0.5
					c-0.1,0.2,0,0.5,0.1,1c0.1,0.4,0.2,0.6,0.4,0.6c0.2,0,0.4,0,0.6,0c0.2,0,0.4-0.1,0.6-0.2l2.6-0.9c0.4-0.1,0.7-0.3,0.7-0.3
					c0.1-0.1,0-0.3,0-0.6l-2.5-10.7c-0.1-0.5-0.2-0.7-0.4-0.8c-0.1-0.1-0.4-0.1-0.7,0l-3,0.5c-0.2,0-0.3,0.1-0.5,0.1
					c-0.3,0.1-0.4,0.2-0.5,0.3c-0.1,0.1,0,0.4,0.1,0.8c0.1,0.4,0.2,0.7,0.4,0.8c0.2,0.1,0.5,0.2,1,0.1c1.1-0.1,1.9-0.1,2.1-0.1
					c0.3,0.1,0.5,0.2,0.5,0.4l0.2,0.7l-16.7,4c-0.2,0.1-0.4,0.1-0.5,0c-0.1-0.1-0.3-0.2-0.4-0.5c-0.2-0.3-0.5-0.4-1-0.3
					c-0.4,0.1-0.6,0.2-0.7,0.3c-0.1,0.1-0.1,0.3,0,0.5l1.5,6.4c0.1,0.3,0.2,0.5,0.3,0.6c0.1,0.1,0.4,0.1,0.8,0
					c0.3-0.1,0.6-0.2,0.7-0.3c0.1-0.1,0.2-0.2,0.2-0.5c0.1-0.5,0.3-0.8,0.8-0.9l16.5-3.9L475.1,221.9z"/>
				<path class="st3" d="M477.7,238.8c0.4-0.8,0.5-1.6,0.4-2.6c-0.1-1-0.4-2-0.8-3.1c-0.7-1.6-1.6-2.8-2.7-3.6
					c-1.1-0.7-2.1-0.9-3.2-0.5c-1.1,0.5-1.4,1.3-0.9,2.4c0.2,0.6,0.5,1.1,0.9,1.5c0.4,0.4,0.7,0.7,1,0.7c0.3,0,0.7,0,1.3-0.3
					c1-0.4,1.6-0.2,2,0.6c0.3,0.6,0.1,1-0.6,1.3l-2.3,1c-0.6-0.6-1.3-1.4-2.2-2.3c-1.3-1.5-2.5-2.4-3.4-2.7c-1-0.3-2.4-0.1-4.2,0.7
					c-1.8,0.8-3,1.6-3.6,2.6c-0.5,1-0.6,2.1-0.1,3.2c0.2,0.5,0.5,1,0.9,1.4c0.4,0.4,1.2,0.9,2.2,1.4c-0.6,0.5-0.9,1.1-0.9,1.7
					c0,0.6,0.1,1.2,0.4,1.9c0.2,0.6,0.5,1.1,0.8,1.4c0.3,0.3,0.5,0.5,0.7,0.6c0.2,0,0.4,0,0.8-0.1c0.2-0.1,0.4-0.3,0.4-0.5
					c0.1-0.3,0.1-0.5,0.2-0.6l11.1-4.7C476.7,240.1,477.3,239.6,477.7,238.8z M465,239.7c-1,0.4-1.7,0.3-2-0.4
					c-0.2-0.4-0.1-0.8,0.2-1.1c0.3-0.3,1.1-0.7,2.4-1.3c1.8-0.7,3-1.1,3.5-1.1c0.6,0,1.3,0.4,2.1,1.3L465,239.7z"/>
				<path class="st3" d="M491.2,259.1c0.3-0.6,0.3-1.1,0.2-1.6c-0.1-0.5-0.3-1-0.7-1.5c-0.7-1-2.1-1.7-4-2.1
					c0.7-1.4,0.6-2.7-0.1-3.8c-0.8-1.1-2.1-1.8-3.9-2.1l1.1-0.8c0.2-0.2,0.2-0.4,0-0.7l-2.7-3.8c-0.2-0.3-0.5-0.4-0.7-0.2l-0.6,0.4
					c-0.2,0.2-0.3,0.3-0.2,0.6c0.1,0.4,0,0.6-0.3,0.8l-10.9,7.7c-0.1,0.1-0.4,0.1-0.7,0c-0.4-0.1-0.6-0.1-0.7,0l-0.7,0.5
					c-0.2,0.1-0.2,0.3,0,0.5l3.3,4.6c0.2,0.3,0.4,0.4,0.7,0.2l0.6-0.4c0.2-0.1,0.2-0.3,0.2-0.5c0-0.4,0.1-0.6,0.3-0.8l10.1-7.1
					c0.1,0.1,0.2,0.1,0.2,0.1c0.5,0.3,0.8,0.5,1,0.7c0.3,0.4,0.2,0.8-0.2,1.2l-10.2,7.2c-0.7,0.5-1,1.1-1.1,1.8l2.5,3.6
					c0.2,0.3,0.4,0.3,0.7,0.1l0.6-0.5c0.1-0.1,0.2-0.2,0.2-0.5c0-0.4,0.1-0.6,0.3-0.8l9.7-6.9c0.2-0.2,0.5-0.2,0.8-0.1
					c0.3,0.1,0.5,0.3,0.8,0.6c0.4,0.5,0.3,1-0.2,1.3l-10.2,7.2c-0.7,0.5-1.1,1.1-1.1,1.8l2.5,3.5c0.2,0.3,0.4,0.3,0.7,0.1l0.5-0.4
					c0.2-0.1,0.3-0.4,0.4-0.7c0.1-0.3,0.2-0.5,0.4-0.7l10.2-7.2C490.5,260.1,490.9,259.6,491.2,259.1z"/>
				<path class="st3" d="M493.8,281.4l8.1-8.9c0.5-0.6,0.8-1.3,0.9-2.2c0-0.9-0.2-1.7-0.7-2.6c-0.5-0.8-1.2-1.6-2.1-2.4
					c-1.3-1.2-2.6-1.9-3.9-2.1c-1.3-0.2-2.3,0.1-3.1,0.9c-0.8,0.9-0.7,1.8,0.2,2.6c0.5,0.4,1,0.7,1.5,1c0.5,0.2,0.9,0.3,1.2,0.2
					c0.3-0.1,0.6-0.3,1-0.8c0.7-0.8,1.4-0.9,2.1-0.3c0.5,0.4,0.5,0.9,0,1.4l-1.7,1.9c-0.8-0.3-1.8-0.7-3-1.2c-1.8-0.8-3.3-1.1-4.3-1
					c-1,0.1-2.2,0.9-3.5,2.4c-1.3,1.5-2,2.8-2.1,3.9c-0.1,1.1,0.4,2.1,1.3,2.9c0.4,0.4,0.9,0.7,1.5,0.9c0.5,0.2,1.4,0.3,2.6,0.3
					c-0.3,0.7-0.3,1.4-0.1,1.9c0.2,0.5,0.6,1.1,1.2,1.6c0.5,0.4,0.9,0.7,1.3,0.9c0.4,0.2,0.7,0.3,0.9,0.2c0.2,0,0.4-0.2,0.6-0.4
					c0.2-0.2,0.2-0.4,0.2-0.6C493.8,281.7,493.8,281.5,493.8,281.4z M491.6,276.5c-0.8,0.8-1.4,1-2,0.5c-0.3-0.3-0.4-0.6-0.3-1
					c0.1-0.4,0.7-1.1,1.6-2.2c1.3-1.4,2.2-2.3,2.7-2.5c0.5-0.3,1.4-0.2,2.5,0.3L491.6,276.5z"/>
				<path class="st3" d="M515.7,276.9c-1.3-0.8-2.8-1-4.5-0.5l0.7-1.2c0.1-0.1,0.1-0.2,0.1-0.3c0-0.1-0.1-0.2-0.3-0.3l-4.2-2.6
					c-0.2-0.1-0.4-0.1-0.6,0.1l-0.4,0.6c-0.1,0.2-0.1,0.3,0,0.5c0.2,0.3,0.2,0.6,0.1,0.8l-6.8,11c-0.2,0.4-0.4,0.6-0.5,0.7
					c-0.1,0.1-0.3,0.1-0.6,0.1c-0.2,0-0.4,0.1-0.5,0.3l-0.3,0.4c-0.1,0.2-0.2,0.4-0.2,0.5c0,0.1,0.1,0.2,0.4,0.3l4.5,2.8
					c0.4,0.3,0.7,0.3,0.9,0l0.4-0.6c0.1-0.2,0.2-0.5,0-0.7c-0.2-0.3-0.2-0.6-0.1-0.9l6.5-10.5c0.6-0.1,1.1,0,1.5,0.2
					c0.5,0.3,0.6,0.8,0.3,1.4l-6.6,10.7c-0.4,0.6-0.4,1.3-0.2,2l3.6,2.2c0.2,0.1,0.4,0.2,0.5,0.1c0.1,0,0.3-0.2,0.5-0.6
					c0.3-0.4,0.3-0.8,0.2-1c-0.1-0.3-0.1-0.5,0-0.7l6.6-10.8c0.5-0.8,0.6-1.5,0.5-2.3C517.1,278.1,516.6,277.4,515.7,276.9z"/>
				<path class="st3" d="M533.2,284.9l-4.6-1.8c-0.3-0.1-0.5-0.1-0.6,0.2c-0.2,0.5-0.3,0.9-0.3,1c0,0.1,0.1,0.2,0.2,0.4
					c0.3,0.3,0.3,0.6,0.2,0.9l-4.4,11.4c-0.4,0.3-0.9,0.3-1.4,0.1c-0.7-0.3-0.8-0.9-0.4-2l4.7-12.1c0.1-0.2,0.1-0.4,0.1-0.4
					c0-0.1-0.1-0.2-0.4-0.2l-4.3-1.7c-0.3-0.1-0.5-0.1-0.6-0.1c-0.1,0-0.2,0.2-0.3,0.4c0,0.1-0.1,0.2-0.1,0.4
					c-0.1,0.3-0.1,0.5-0.1,0.6c0,0.1,0.1,0.3,0.3,0.4c0.1,0,0.1,0.1,0.2,0.2l-4.4,11.3c-0.6,1.5-0.7,2.6-0.3,3.3
					c0.4,0.7,1,1.3,1.9,1.6c1,0.4,2.5,0.3,4.4-0.3c0,0-0.1,0.2-0.2,0.6l-0.1,0.3c-0.1,0.3-0.1,0.5-0.1,0.6c0.1,0.1,0.2,0.2,0.5,0.3
					l4.2,1.6c0.3,0.1,0.4,0.1,0.5,0.1c0.1,0,0.2-0.3,0.4-0.8c0.1-0.3,0.1-0.7-0.2-0.9c-0.2-0.2-0.3-0.4-0.2-0.7l5.5-14.1
					c0.1-0.2,0.1-0.4,0.1-0.4C533.5,285,533.4,285,533.2,284.9z"/>
				<path class="st3" d="M553.2,295.2l-0.8-0.1c-0.2,0-0.4,0-0.5,0.2c-0.3,0.2-0.5,0.3-0.6,0.3c-0.2,0-0.5,0-0.9,0
					c-0.4,0-0.8-0.1-1.3-0.2c-0.5-0.1-0.8-0.2-1.1-0.2c-0.6-0.1-0.9,0-1.1,0.1c-0.2,0.1-0.5,0.7-1,1.8c-0.5,1.1-0.7,1.8-0.8,2.1
					c0,0.2,0,0.4,0.1,0.4c0.1,0.1,0.4,0.1,0.9,0.2c0.3,0,0.5,0,0.6,0c0.1,0,0.2-0.1,0.3-0.2c0.3-0.3,0.6-0.4,1.1-0.3
					c0.5,0.1,1.2,0.2,2.1,0.3c0.5,0.1,0.8,0.1,1,0.2c0.4,0,0.6,0,0.8-0.2c0.2-0.2,0.6-0.8,1.1-1.9c0.5-1.1,0.8-1.7,0.8-2
					C553.9,295.4,553.7,295.3,553.2,295.2z"/>
				<path class="st3" d="M580,285.7c-1.5-1-3.3-1.4-5.5-1l-7.6,1.2c-0.3,0-0.4,0.1-0.5,0.2c-0.1,0.1-0.1,0.3,0,0.5l0.1,0.6
					c0.1,0.3,0.2,0.4,0.5,0.5c0.6,0.1,0.9,0.4,0.9,0.8l2.4,15.7c0,0.2,0,0.3,0,0.4c-0.1,0.1-0.2,0.2-0.4,0.3
					c-0.3,0.1-0.4,0.2-0.5,0.3c0,0.1,0,0.4,0,0.8c0.1,0.5,0.3,0.8,0.7,0.7l6.7-1c0.3-0.1,0.5-0.1,0.6-0.2c0.1-0.1,0.1-0.3,0.1-0.7
					c-0.1-0.4-0.1-0.6-0.3-0.7c-0.1-0.1-0.3-0.2-0.5-0.2c-0.5-0.1-0.8-0.4-0.9-0.9l-0.7-4.3l1.9-0.3c0.9-0.1,1.7-0.4,2.5-0.8
					c0.8-0.4,1.4-0.9,1.9-1.4c0.5-0.5,0.9-1.3,1.2-2.3c0.3-1,0.3-2.1,0.1-3.4C582.4,288.3,581.5,286.7,580,285.7z M576.9,296.4
					c-0.2,0.4-0.5,0.6-0.9,0.7l-1,0.2l-1.7-10.9l0.8-0.1c1.1-0.2,1.8,0.5,2,1.9l1,6.5C577.2,295.5,577.1,296.1,576.9,296.4z"/>
				<path class="st3" d="M603,296.8c-0.3,0-0.5-0.2-0.6-0.4l-5.1-14.2c-0.1-0.2-0.1-0.3-0.2-0.4c-0.1,0-0.2,0-0.4,0.1l-4.6,1.7
					c-0.3,0.1-0.4,0.3-0.4,0.5c0.2,0.5,0.3,0.9,0.4,0.9c0.1,0.1,0.2,0.1,0.4,0.2c0.4,0,0.6,0.2,0.7,0.5l4.1,11.5
					c-0.1,0.5-0.4,0.8-1,1c-0.7,0.2-1.2-0.2-1.6-1.2l-4.4-12.2c-0.1-0.2-0.2-0.4-0.2-0.4c-0.1,0-0.2,0-0.4,0.1l-4.4,1.6
					c-0.3,0.1-0.4,0.2-0.5,0.3c-0.1,0.1,0,0.3,0.1,0.5c0,0.1,0.1,0.2,0.1,0.4c0.1,0.3,0.2,0.4,0.3,0.5c0.1,0.1,0.3,0.1,0.5,0.1
					c0.1,0,0.2,0,0.3,0l4.1,11.4c0.5,1.5,1.2,2.4,1.9,2.7c0.8,0.3,1.6,0.3,2.5,0c1-0.4,2.1-1.4,3.2-3.1c0,0,0.1,0.2,0.2,0.6l0.1,0.3
					c0.1,0.3,0.2,0.5,0.4,0.5c0.1,0,0.3,0,0.6-0.1l4.3-1.5c0.3-0.1,0.4-0.2,0.4-0.3c0-0.1-0.1-0.4-0.2-0.9
					C603.6,297,603.4,296.8,603,296.8z"/>
				<path class="st3" d="M620.2,287.4c-0.3,0-0.5-0.1-0.6-0.4l-6.4-10.9c-0.5-0.8-1.1-1.3-1.8-1.5c-0.8-0.2-1.6-0.1-2.5,0.4
					c-1.3,0.8-2.2,2-2.5,3.8l-0.7-1.2c-0.1-0.1-0.2-0.2-0.2-0.2c-0.1,0-0.2,0-0.4,0.1l-4.2,2.5c-0.2,0.1-0.3,0.3-0.2,0.6l0.4,0.6
					c0.1,0.2,0.3,0.2,0.5,0.2c0.4,0,0.6,0.1,0.8,0.3l6.5,11.2c0.2,0.4,0.3,0.7,0.3,0.8c0,0.1-0.1,0.3-0.2,0.6
					c-0.1,0.2-0.1,0.4,0,0.6l0.2,0.4c0.1,0.2,0.2,0.4,0.3,0.4c0.1,0,0.3,0,0.5-0.2l4.6-2.7c0.4-0.2,0.6-0.5,0.4-0.8l-0.3-0.6
					c-0.1-0.2-0.3-0.4-0.6-0.3c-0.4,0-0.7-0.1-0.8-0.4l-6.2-10.6c0.2-0.6,0.5-1,0.9-1.2c0.6-0.3,1-0.2,1.3,0.4l6.3,10.8
					c0.4,0.6,0.9,1,1.7,1.1l3.6-2.1c0.2-0.1,0.3-0.2,0.3-0.3c0-0.1-0.1-0.3-0.3-0.7C620.8,287.6,620.5,287.4,620.2,287.4z"/>
				<path class="st3" d="M635.9,275.6c-0.2-0.2-0.4-0.3-0.6-0.2c-0.3,0-0.5,0-0.6,0l-7.8-9.1c-0.5-0.6-1.2-1-2.1-1.1
					c-0.9-0.1-1.7,0-2.6,0.4c-0.9,0.4-1.8,1-2.7,1.7c-1.4,1.2-2.2,2.4-2.6,3.6c-0.4,1.3-0.2,2.3,0.5,3.2c0.8,0.9,1.6,1,2.6,0.1
					c0.5-0.4,0.9-0.8,1.2-1.3c0.3-0.5,0.4-0.9,0.4-1.2c0-0.3-0.3-0.7-0.7-1.1c-0.7-0.8-0.7-1.5,0-2.1c0.5-0.4,1-0.4,1.4,0.2l1.7,1.9
					c-0.4,0.8-0.9,1.7-1.5,2.8c-1,1.7-1.5,3.1-1.5,4.1c0,1,0.7,2.3,1.9,3.8c1.3,1.5,2.5,2.4,3.6,2.6c1.1,0.2,2.1-0.1,3.1-0.9
					c0.4-0.4,0.8-0.8,1.1-1.3c0.3-0.5,0.5-1.4,0.6-2.5c0.7,0.4,1.3,0.5,1.9,0.3c0.6-0.1,1.1-0.5,1.7-1c0.5-0.4,0.9-0.8,1.1-1.2
					c0.2-0.4,0.4-0.6,0.3-0.8C636.2,276.1,636.1,275.9,635.9,275.6z M629.7,279c-0.3,0.3-0.7,0.3-1.1,0.2c-0.4-0.2-1-0.8-1.9-1.9
					c-1.2-1.5-2-2.5-2.2-3c-0.2-0.6,0-1.4,0.6-2.4l4.4,5.1C630.2,277.8,630.3,278.5,629.7,279z"/>
				<path class="st3" d="M648.5,261c-0.2-0.2-0.4-0.2-0.6-0.1c-0.3,0.1-0.5,0.1-0.6,0.1l-9.3-7.6c-0.6-0.5-1.4-0.7-2.2-0.7
					c-0.9,0-1.7,0.3-2.5,0.8c-0.8,0.5-1.6,1.3-2.3,2.2c-1.1,1.4-1.8,2.7-1.9,4c-0.1,1.3,0.2,2.3,1.1,3c0.9,0.8,1.8,0.6,2.6-0.3
					c0.4-0.5,0.7-1,0.9-1.5c0.2-0.5,0.3-0.9,0.2-1.2c-0.1-0.3-0.4-0.6-0.8-1c-0.8-0.7-1-1.4-0.4-2c0.4-0.5,0.9-0.5,1.4-0.1l2,1.6
					c-0.2,0.8-0.6,1.8-1,3c-0.7,1.9-0.9,3.3-0.8,4.3c0.2,1,1,2.1,2.6,3.4c1.5,1.3,2.9,1.9,4,1.9c1.1,0,2.1-0.5,2.9-1.5
					c0.4-0.4,0.6-0.9,0.8-1.5c0.2-0.6,0.2-1.4,0.2-2.6c0.7,0.2,1.4,0.2,1.9,0c0.5-0.2,1-0.7,1.5-1.3c0.4-0.5,0.7-0.9,0.9-1.4
					c0.2-0.4,0.2-0.7,0.2-0.9C648.9,261.4,648.7,261.2,648.5,261z M643,265.4c-0.3,0.3-0.6,0.5-1,0.4c-0.4-0.1-1.2-0.6-2.2-1.5
					c-1.5-1.2-2.4-2.1-2.7-2.6c-0.3-0.5-0.2-1.4,0.1-2.5l5.2,4.3C643.3,264.1,643.5,264.8,643,265.4z"/>
				<path class="st3" d="M658.6,244c-0.3-0.2-0.6-0.2-0.9,0.1c-0.2,0.2-0.5,0.2-0.7,0.1l-13.3-7.3c-0.2-0.1-0.3-0.2-0.4-0.1
					c-0.1,0-0.2,0.1-0.3,0.3l-2.4,4.3c-0.2,0.3-0.1,0.5,0.1,0.6c0.5,0.3,0.8,0.4,0.9,0.4c0.1,0,0.2,0,0.4-0.1
					c0.3-0.2,0.6-0.3,0.9-0.1l10.7,5.9c0.2,0.4,0.2,0.9-0.1,1.4c-0.3,0.6-1,0.7-2,0.1l-11.4-6.2c-0.2-0.1-0.4-0.2-0.4-0.1
					c-0.1,0-0.2,0.1-0.3,0.3l-2.2,4.1c-0.1,0.3-0.2,0.4-0.2,0.6c0,0.1,0.2,0.2,0.4,0.4c0.1,0,0.2,0.1,0.4,0.2
					c0.3,0.1,0.4,0.2,0.6,0.2c0.1,0,0.3-0.1,0.5-0.3c0.1,0,0.1-0.1,0.2-0.2l10.7,5.8c1.4,0.8,2.5,1,3.2,0.7c0.8-0.3,1.4-0.8,1.8-1.6
					c0.5-1,0.6-2.4,0.3-4.4c0,0,0.2,0.1,0.5,0.3l0.3,0.2c0.3,0.1,0.5,0.2,0.6,0.1c0.1-0.1,0.3-0.2,0.4-0.5l2.2-4
					c0.1-0.2,0.2-0.4,0.1-0.5C659.3,244.4,659,244.2,658.6,244z"/>
				<path class="st3" d="M644.1,226.5c-0.6-0.2-1.1,0.2-1.5,1.2c-0.3,0.8-0.4,1.6-0.5,2.6c0,0.9,0.3,1.5,0.8,1.7
					c0.7,0.3,1.2-0.2,1.7-1.4c0.3-0.9,0.5-1.8,0.4-2.6C644.9,227.2,644.6,226.7,644.1,226.5z"/>
				<path class="st3" d="M662.9,232.6c-0.4-0.1-0.7-0.1-1,0.2c-0.1,0.1-0.2,0.2-0.3,0.2c-0.1,0-0.2,0-0.4-0.1l-14.2-5.3
					c-0.3-0.1-0.5,0-0.6,0.3l-1.7,4.5c-0.1,0.4-0.1,0.6,0.2,0.7l0.8,0.3c0.2,0.1,0.3,0,0.5-0.1c0.2-0.4,0.6-0.5,1.1-0.3l12.3,4.6
					c0.2,0.1,0.3,0.3,0.3,0.6c0,0.3,0.2,0.5,0.6,0.7c0.4,0.1,0.6,0.2,0.7,0.2c0.1,0,0.2-0.1,0.2-0.2l2-5.4c0.1-0.3,0.1-0.4,0-0.5
					C663.6,232.9,663.3,232.8,662.9,232.6z"/>
				<path class="st3" d="M668.3,215.4c0-0.4-0.1-0.7-0.2-0.9c-0.1-0.1-0.3-0.2-0.7-0.3c-0.2-0.1-0.5,0-0.6,0.2
					c-0.3,0.2-0.4,0.4-0.5,0.4l-11.8-2.5c-0.8-0.2-1.6,0-2.3,0.4c-0.8,0.4-1.4,1-1.9,1.9c-0.5,0.9-0.8,1.9-1.1,3
					c-0.4,1.7-0.3,3.2,0.1,4.5c0.5,1.2,1.2,2,2.3,2.2c1.2,0.3,1.9-0.2,2.2-1.5c0.1-0.6,0.2-1.2,0.1-1.8c-0.1-0.6-0.2-1-0.4-1.2
					c-0.2-0.2-0.6-0.4-1.2-0.5c-1-0.2-1.5-0.8-1.3-1.6c0.1-0.6,0.5-0.9,1.2-0.7l2.5,0.5c0.2,0.8,0.3,1.9,0.5,3.1
					c0.2,2,0.7,3.4,1.3,4.2c0.6,0.8,1.9,1.4,3.8,1.8c1.9,0.4,3.4,0.4,4.4-0.1c1-0.5,1.6-1.4,1.9-2.6c0.1-0.6,0.1-1.1,0-1.7
					c-0.1-0.6-0.4-1.4-1-2.4c0.8-0.1,1.3-0.4,1.7-0.9c0.4-0.5,0.6-1.1,0.8-1.8C668.2,216.4,668.3,215.9,668.3,215.4z M664.4,220.6
					c-0.1,0.4-0.3,0.7-0.7,0.8c-0.4,0.1-1.3,0-2.7-0.3c-1.9-0.4-3.1-0.8-3.6-1.1c-0.5-0.3-0.8-1.1-1-2.3l6.6,1.4
					C664.1,219.4,664.6,219.9,664.4,220.6z"/>
				<path class="st3" d="M460.1,201.3c-0.2,1.8,1.1,3.4,2.9,3.6c1.8,0.2,3.4-1.1,3.6-2.9c0.2-1.8-1.1-3.4-2.9-3.6
					C461.9,198.2,460.3,199.5,460.1,201.3z"/>
				<path class="st3" d="M661.4,198.8c-1.8-0.2-3.4,1.1-3.6,2.9c-0.2,1.8,1.1,3.4,2.9,3.6c1.8,0.2,3.4-1.1,3.6-2.9
					C664.5,200.6,663.2,199,661.4,198.8z"/>
			</g>
		</g>
		<g>
			<g>
				<path class="st5" d="M640,197.3c2.2-2.1,4.5-4.4,6.6-6.9c-1.2-1.1-2.5-2.1-3.8-3c-1.3-1-2.5-1.9-3.8-2.7
					C639.6,188.9,640,193.1,640,197.3z"/>
			</g>
			<g>
				<path class="st5" d="M639,184.7c0.9-1.2,1.9-2.5,2.8-3.8c0.9-1.3,1.7-2.6,2.6-4c-1.3-0.9-2.8-1.6-4.2-2.4l-2.1-1.1l-2.2-1
					C637.3,176.4,638.3,180.5,639,184.7z"/>
			</g>
			<g>
				<path class="st5" d="M635.9,172.4c1.5-2.7,2.9-5.6,4.1-8.6c-1.5-0.6-3-1.2-4.5-1.7c-1.5-0.5-3-0.9-4.5-1.4
					C633,164.5,634.6,168.4,635.9,172.4z"/>
			</g>
			<g>
				<path class="st5" d="M631,160.8c0.6-1.5,1-3,1.4-4.5l0.6-2.3c0.2-0.8,0.4-1.6,0.5-2.3c-3.1-0.7-6.3-1.2-9.4-1.5
					C626.7,153.5,629,157,631,160.8z"/>
			</g>
			<g>
				<path class="st5" d="M624.2,150.1c0.3-1.5,0.5-3.1,0.7-4.7c0.2-1.6,0.3-3.2,0.4-4.8c-1.6-0.1-3.2-0.1-4.8-0.1l-2.4,0l-2.4,0.1
					C618.8,143.5,621.7,146.7,624.2,150.1z"/>
			</g>
			<g>
				<path class="st5" d="M615.8,140.6c0.1-3.1-0.1-6.3-0.4-9.5c-1.6,0.2-3.2,0.4-4.8,0.6c-1.6,0.3-3.1,0.6-4.6,0.9
					C609.5,135,612.8,137.7,615.8,140.6z"/>
			</g>
			<g>
				<path class="st5" d="M606,132.6c-0.2-1.6-0.5-3.1-0.8-4.6c-0.2-0.8-0.3-1.6-0.5-2.4l-0.6-2.3c-3.1,0.8-6.2,1.9-9,3
					C598.9,128.1,602.5,130.2,606,132.6z"/>
			</g>
			<g>
				<path class="st5" d="M595.1,126.3c-0.5-1.5-1-3-1.5-4.5c-0.6-1.5-1.2-2.9-1.8-4.4c-1.5,0.6-2.9,1.4-4.3,2.1l-2.1,1.1l-2,1.2
					C587.3,123,591.3,124.4,595.1,126.3z"/>
			</g>
			<g>
				<path class="st5" d="M583.2,121.8c-1.4-2.8-3-5.5-4.8-8.3c-1.4,0.9-2.7,1.9-3.9,2.8c-1.3,0.9-2.5,2-3.7,3
					C575,119.7,579.2,120.6,583.2,121.8z"/>
			</g>
			<g>
				<path class="st5" d="M570.8,119.3c-0.9-1.3-1.9-2.5-2.9-3.7c-1-1.2-2.1-2.5-3.2-3.6c-1.2,1.1-2.3,2.2-3.4,3.4
					c-1.1,1.2-2.2,2.3-3.2,3.5C562.4,118.5,566.7,118.8,570.8,119.3z"/>
			</g>
			<g>
				<path class="st5" d="M558.2,118.8c-1.1-1.1-2.2-2.2-3.4-3.2c-1.2-1.1-2.4-2.1-3.7-3.1c-1,1.3-2,2.5-2.9,3.9
					c-0.9,1.3-1.8,2.6-2.6,4C549.8,119.4,554,118.9,558.2,118.8z"/>
			</g>
			<g>
				<path class="st5" d="M545.6,120.3c-2.5-1.8-5.2-3.5-8-5.1l-1.1,2.1l-1.1,2.2c-0.7,1.5-1.3,2.8-1.9,4.3
					C537.4,122.3,541.5,121.1,545.6,120.3z"/>
			</g>
			<g>
				<path class="st5" d="M533.5,123.8c-1.4-0.7-2.8-1.4-4.3-2c-1.5-0.6-2.9-1.2-4.5-1.7c-1.1,3.1-2,6.1-2.6,9.2
					C525.7,127.1,529.5,125.2,533.5,123.8z"/>
			</g>
			<g>
				<path class="st5" d="M522.1,129.2l-2.3-0.7c-0.8-0.2-1.5-0.4-2.3-0.6c-1.5-0.4-3.1-0.8-4.7-1c-0.3,1.6-0.5,3.2-0.7,4.8
					c-0.2,1.6-0.3,3.2-0.4,4.7C514.9,133.7,518.4,131.3,522.1,129.2z"/>
			</g>
			<g>
				<path class="st5" d="M511.6,136.4c-3.1-0.4-6.3-0.7-9.5-0.7l0,2.4l0.1,2.4c0.1,1.6,0.1,3.1,0.3,4.7
					C505.3,142,508.4,139.1,511.6,136.4z"/>
			</g>
			<g>
				<path class="st5" d="M502.5,145.2c-1.5,0-3.1,0.1-4.7,0.2c-1.6,0.1-3.2,0.3-4.8,0.5c0.5,3.2,1.1,6.3,1.9,9.4
					C497.2,151.7,499.7,148.3,502.5,145.2z"/>
			</g>
			<g>
				<path class="st5" d="M494.9,155.3c-0.8,0.1-1.5,0.3-2.3,0.4l-2.3,0.5c-1.5,0.4-3.1,0.8-4.6,1.3c0.5,1.6,1,3.1,1.6,4.6
					c0.6,1.5,1.2,3,1.8,4.4C490.7,162.6,492.7,158.9,494.9,155.3z"/>
			</g>
			<g>
				<path class="st5" d="M489,166.5c-2.9,1.1-5.9,2.3-8.7,3.7l1.1,2.1l1.2,2.1c0.8,1.4,1.6,2.7,2.5,4
					C486,174.4,487.4,170.4,489,166.5z"/>
			</g>
			<g>
				<path class="st5" d="M485,178.5c-1.3,0.8-2.7,1.6-4.1,2.4c-1.3,0.9-2.6,1.8-4,2.7c0.9,1.3,2,2.6,2.9,3.8c1,1.2,2,2.4,3.1,3.6
					C483.4,186.8,484,182.6,485,178.5z"/>
			</g>
			<g>
				<path class="st5" d="M483,191c-2.5,1.9-4.8,4-7.2,6.3c2.4,2.3,4.7,4.4,7.2,6.3c-0.2-2.1-0.2-4.2-0.3-6.3
					C482.8,195.2,482.8,193.1,483,191z"/>
			</g>
			<g>
				<path class="st5" d="M483,203.6c-1.1,1.1-2.1,2.3-3.1,3.6c-1,1.2-2,2.5-2.9,3.8c1.3,0.9,2.7,1.8,4,2.7c1.4,0.8,2.7,1.6,4.1,2.4
					C484,212,483.4,207.8,483,203.6z"/>
			</g>
			<g>
				<path class="st5" d="M485,216.1c-0.9,1.3-1.7,2.6-2.5,4l-1.2,2.1l-1.1,2.1c2.9,1.5,5.9,2.7,8.8,3.7
					C487.4,224.2,486,220.2,485,216.1z"/>
			</g>
			<g>
				<path class="st5" d="M489,228.1c-0.6,1.4-1.2,2.9-1.8,4.4c-0.6,1.5-1.1,3-1.6,4.5c1.5,0.5,3.1,0.9,4.6,1.3l2.3,0.5
					c0.8,0.2,1.6,0.3,2.3,0.4C492.7,235.7,490.7,232,489,228.1z"/>
			</g>
			<g>
				<path class="st5" d="M494.9,239.3c-0.8,3-1.4,6.1-1.9,9.4c1.6,0.2,3.2,0.4,4.8,0.5c1.6,0.1,3.2,0.2,4.7,0.2
					C499.7,246.3,497.2,242.9,494.9,239.3z"/>
			</g>
			<g>
				<path class="st5" d="M502.5,249.4c-0.2,1.6-0.3,3.1-0.3,4.7l-0.1,2.4l0,2.4c3.2,0,6.4-0.3,9.5-0.7
					C508.4,255.5,505.3,252.6,502.5,249.4z"/>
			</g>
			<g>
				<path class="st5" d="M511.6,258.2c0.1,1.5,0.2,3.1,0.4,4.7c0.2,1.6,0.5,3.1,0.7,4.8c1.6-0.3,3.2-0.6,4.7-1
					c0.8-0.2,1.5-0.4,2.3-0.6l2.3-0.7C518.4,263.3,514.9,260.9,511.6,258.2z"/>
			</g>
			<g>
				<path class="st5" d="M522.1,265.4c0.7,3.1,1.6,6.1,2.6,9.2c1.5-0.6,3-1.1,4.5-1.7c1.5-0.6,2.9-1.3,4.3-2
					C529.5,269.4,525.7,267.5,522.1,265.4z"/>
			</g>
			<g>
				<path class="st5" d="M533.5,270.8c0.6,1.5,1.2,2.9,1.9,4.3l1.1,2.2l1.1,2.1c2.8-1.5,5.5-3.3,8.1-5.1
					C541.5,273.5,537.4,272.3,533.5,270.8z"/>
			</g>
			<g>
				<path class="st5" d="M545.6,274.4c0.8,1.3,1.7,2.6,2.6,4c0.9,1.3,1.9,2.6,2.9,3.9c1.3-1,2.5-2,3.7-3.1c1.2-1.1,2.3-2.1,3.4-3.2
					C554,275.7,549.8,275.2,545.6,274.4z"/>
			</g>
			<g>
				<path class="st5" d="M558.2,275.8c1,1.2,2.1,2.3,3.2,3.5c1.1,1.1,2.2,2.2,3.4,3.4c1.1-1.1,2.2-2.4,3.2-3.6c1-1.2,2-2.4,2.9-3.7
					C566.7,275.8,562.4,276.1,558.2,275.8z"/>
			</g>
			<g>
				<path class="st5" d="M570.8,275.3c1.2,1,2.4,2,3.7,3c1.3,0.9,2.6,1.9,3.9,2.8c1.8-2.8,3.4-5.4,4.8-8.3
					C579.2,274,575,274.9,570.8,275.3z"/>
			</g>
			<g>
				<path class="st5" d="M583.2,272.8l2,1.2l2.1,1.1c1.4,0.7,2.9,1.5,4.3,2.1c0.7-1.5,1.3-3,1.9-4.4c0.6-1.5,1.1-3,1.5-4.5
					C591.3,270.2,587.3,271.6,583.2,272.8z"/>
			</g>
			<g>
				<path class="st5" d="M595.1,268.4c2.9,1.1,5.9,2.2,9,3l0.6-2.3c0.2-0.8,0.3-1.6,0.5-2.4c0.3-1.6,0.6-3.1,0.8-4.6
					C602.5,264.4,598.9,266.5,595.1,268.4z"/>
			</g>
			<g>
				<path class="st5" d="M606,262c1.5,0.3,3.1,0.6,4.6,0.9c1.6,0.2,3.1,0.4,4.8,0.6c0.3-3.3,0.5-6.4,0.4-9.5
					C612.8,256.9,609.5,259.6,606,262z"/>
			</g>
			<g>
				<path class="st5" d="M615.8,254l2.4,0.1l2.4,0c1.6,0,3.2,0,4.8-0.1c-0.1-1.6-0.2-3.2-0.4-4.8c-0.2-1.6-0.4-3.1-0.7-4.7
					C621.7,247.9,618.8,251.1,615.8,254z"/>
			</g>
			<g>
				<path class="st5" d="M624.2,244.5c3.1-0.3,6.3-0.8,9.4-1.5c-0.2-0.8-0.3-1.6-0.5-2.3l-0.6-2.3c-0.4-1.5-0.9-3-1.4-4.5
					C629,237.6,626.7,241.1,624.2,244.5z"/>
			</g>
			<g>
				<path class="st5" d="M631,233.8c1.5-0.4,3-0.8,4.5-1.3c1.5-0.5,3-1.1,4.5-1.7c-1.2-3-2.6-5.9-4.1-8.6
					C634.6,226.2,633,230.1,631,233.8z"/>
			</g>
			<g>
				<path class="st5" d="M635.9,222.2l2.2-1l2.1-1.1c1.4-0.7,2.9-1.5,4.2-2.4c-0.9-1.4-1.7-2.7-2.6-4c-0.9-1.3-1.9-2.6-2.8-3.8
					C638.3,214.1,637.3,218.2,635.9,222.2z"/>
			</g>
			<g>
				<path class="st5" d="M639,209.9c1.3-0.9,2.6-1.8,3.8-2.7c1.3-1,2.5-2,3.8-3c-2.1-2.5-4.3-4.8-6.6-6.9
					C640,201.5,639.6,205.8,639,209.9z"/>
			</g>
		</g>
	</g>
</g>
</svg>
